<?xml version="1.0" encoding="UTF-8"?>
<svg enable-background="new 0 0 2662.199 1045.1667" version="1.1" viewBox="0 0 2662.199 1045.1667" xmlns="http://www.w3.org/2000/svg">
 <path d="m2611.1 434.84c-1.8408-4.3041-5.4663-8.2519-9.8625-9.8624-14.019 0.9193-39.499 2.4924-70.052 4.3469v-8.3193l13.201-8.7666v-19.177c-4.6316-5.2822-11.528-9.8624-21.835-9.8624-10.31 0-17.713 4.5802-22.344 9.8624v19.177l13.201 8.7666v9.3959c-23.582 1.4254-49.184 2.959-74.413 4.4668v-9.2075l13.206-8.7666v-19.177c-4.6316-5.2822-11.53-9.8624-21.837-9.8624h-0.0022c-10.308 0-17.713 4.5802-22.344 9.8624v19.177l13.206 8.7655v10.269c-28.008 1.6694-54.665 3.2522-76.534 4.5481v-7.6494h0.0022l13.201-8.7666v-19.177c-4.6316-5.2833-11.528-9.8624-21.835-9.8624-10.31 0-17.713 4.5791-22.344 9.8624v19.177l13.201 8.7666v8.7013c-19.044 1.1258-32.096 1.8942-35.246 2.0782-3.1506 1.1237-6.042 2.1831-8.9485 3.2468-22.381 8.1888-37.29 14.422-43.026 16.895-2.7397 1.0916-2.8167 1.0776-2.8167 1.0776v0.1487l-872.46-15.58c-2.9407-41.179-9.1604-84.296-21.705-124.14-20.322-64.545-57.413-120.77-123.28-145.74-63.635-24.125-113.14-21.122-160.54-13.698-47.401 7.4247-92.364 19.305-148.48 13.698-87.904-8.7848-171.21-48.715-254.78-86.57s-167.62-73.629-258.61-72.872c-12.11 0.0995-24.316 0.7052-36.71 2.1917-81.735 9.8025-141.93 45.856-186.29 94.789-44.364 48.932-72.802 110.38-90.954 170.4-36.301 120.05-31.779 235.05-31.779 235.05s-4.5224 115.01 31.779 235.05c18.152 60.023 46.59 121.47 90.954 170.4s104.56 84.988 186.29 94.789c99.014 11.874 189.67-23.074 278.89-63.01s177.46-84.871 271.22-94.241c56.12-5.6043 101.08 6.2742 148.48 13.698s96.903 10.428 160.54-13.698c65.867-24.971 102.96-81.2 123.28-145.74 12.501-39.706 18.712-82.663 21.668-123.72l872.5-16.002s16.701 7.46 45.843 18.122c2.9065 1.0637 5.7979 2.1232 8.9485 3.2468 3.1504 0.184 16.202 0.9524 35.246 2.0782v8.5526l-13.201 8.7666v19.177c4.6316 5.2822 12.035 9.8624 22.344 9.8624 10.308 0 17.204-4.5802 21.835-9.8624v-19.177l-13.201-8.7666h-0.0022v-7.5007c21.869 1.2949 48.527 2.8776 76.534 4.5471v10.121l-13.206 8.7655v19.177c4.6316 5.2822 12.037 9.8624 22.344 9.8624h0.0022c10.308 0 17.206-4.5803 21.837-9.8624v-19.177l-13.206-8.7666v-9.0587c25.23 1.5068 50.832 3.0413 74.413 4.4667v9.2471l-13.201 8.7666v19.177c4.6313 5.2822 12.035 9.8624 22.344 9.8624 10.308 0 17.204-4.5802 21.835-9.8624v-19.177l-13.201-8.7666v-8.1705c30.553 1.8546 56.033 3.4277 70.052 4.3469 4.3962-1.6116 8.0217-5.5594 9.8625-9.8624-0.2869-24.154 0-87.666 0-87.666s-0.2866-63.512 3e-4 -87.666z"/>
</svg>
