<?xml version="1.0" encoding="UTF-8"?>
<svg width="376.53" height="252.33" viewBox="0 0 376.53 252.333" xmlns="http://www.w3.org/2000/svg">
 <path d="m.271,174.765c-1.332-52.703 1.656-103.643 31.536-144.719 17.928-24.66 61.2-30.42 91.188-25.236 12.132,2.088 27.18,4.536 34.092,15.372 3.744-1.692 9.072-4.932 13.32-5.364 32.761-3.384 31.608,30.348 29.7,56.628 19.404-3.852 64.98-11.772 64.98-11.772s3.42-6.336 4.067-7.632c5.076-10.008 4.681-11.7 14.111-11.052-9.504-18.504 24.516-33.516 38.123-32.616-.972,1.224-.467,5.652-2.412,8.1 6.877-8.568 13.717-5.04 21.529-.324 1.871-15.336 51.551-26.208 31.141-2.34-2.125,2.52-4.645,4.608-7.201,6.696 .722-.288 1.478-.972 2.269-.936-.072.108-.144.18-.215.252 3.995.288-.433,19.656-1.117,22.248-4.968,18.252-14.761,44.244-31.715,51.372 3.815,9.576-.974,16.056-12.529,17.928-3.853.612-12.853,3.312-14.832-1.728-7.127,4.536-10.619,10.188-19.115,12.276-3.527.864-6.119-2.736-8.389-2.34-5.867.972-16.92,9.792-22.824,3.636-4.139-4.32-1.188-14.472-.971-20.196 .145-3.744 1.188-9.324 2.844-12.852-16.561,4.068-33.48,7.416-49.248,13.14-1.98.72-13.859,3.24-14.4,5.22-5.436,20.052-2.194,38.88-19.656,52.813-11.916,9.504-27.288,14.473-41.22,20.016-7.164,2.846-13.86.252-19.8,6.373-21.456,22.068-41.652,46.115-69.336,61.057-25.056,13.5-41.292-11.629-43.2-33.731-1.188-13.576-.36-26.607-.72-40.289z" stroke="#000" stroke-miterlimit="10" stroke-width=".036"/>
 <path d="m308.718,14.422-.576.216-.539.252-.539.216-.576.216-.541.252-.539.216-.575.216-.541.252-.216.252-.541.216-.539.216-.575.252-.541.216-.215.252-.722.468-.576.252-.18.252-.576.216-.539.252-.396.504-.541.216-.576.216-.395.504-.541.252-.181.252-.756.468-.217.252-.18.252-.756.504-.216.252-.182.252-.396.504-.217.252-.756.468-.18.252-.396.54-.396.504 .145.252-.396.504-.396.504-.217.252-.396.54-.396.504-.395.504 .143.252-.395.504-.396.54-.072.504-.18.252-.396.504-.072.54-.18.252-.396.504 .146.288-.396.504-.215.252 .145.288-.396.504 .143.288-.18.252 .145.252-.217.252-.18.252 .145.288-.217.252 .361.036-.217.252 .145.288 .146.252 .143.288 .145.288h.359l-.215.252 .359.036 .145.288h.324l.18.288 .324.036h.359l.323.036 .359.036h.324l.36.036 .539-.216h.359l.324.036 .217-.252 .324.036 .576-.252 .538-.216h.324l.217-.252 .359.036 .539-.216 .541-.252 .215-.252 .324.036 .541-.216 .576-.252 .18-.252 .539-.216 .576-.252 .18-.252 .576-.216 .541-.216 .18-.252 .576-.252 .18-.252 .756-.468 .218-.252 .539-.216 .217-.252 .756-.504 .18-.252 .217-.252 .757-.468 .18-.252 .432-.504 .181-.252 .432-.504 .182-.252 .757-.504 .432-.504 .396-.504 .396-.504 .072-.54 .396-.504 .396-.504 .432-.504 .611-.756 .396-.504 .396-.504 .071-.54 .396-.504 .396-.504 .396-.504 .072-.54 .395-.504 .434-.504 .035-.504 .396-.504 .432-.54 .035-.504 .217-.252 .396-.504-.146-.288 .396-.504 .215-.252-.144-.288 .181-.252-.146-.288-.145-.252 .217-.252-.18-.288-.146-.288-.145-.252-.359-.036-.145-.288-.359-.036h-.324l-.358-.036-.361-.036h-.359l-.358-.036-.541.216h-.359l-.358-.036-.541.216-.539.252-.363-.036z" fill="#fff" stroke="#000" stroke-miterlimit="10" stroke-width=".036"/>
 <path d="m317.214,21.442-.214.252-.217.252-.18.252-.217.252-.215.252-.181.252 .144.252-.215.288-.218.252 .146.252-.18.252 .143.288-.215.252 .358.036-.215.252h.359l-.217.252 .145.288 .146.288 .143.252 .145.288 .146.288h.359l.145.288 .146.288 .143.288h.361l.143.288 .146.288 .106.252 .146.288 .504.288 .36.036 .144.288 .145.252 .146.288 .324.036 .504.288 .143.288 .145.252 .324.036 .146.288h.358l.146.288 .324.036 .143.252 .361.036 .143.288 .361.036h.324l.358.036 .146.252 .323.036 .359.036 .359.036h.324l.358.036 .217-.252h.324l.359.036 .36.036 .216-.252 .323.036h.359l.541-.216 .576-.252 .539-.216 .576-.216 .18-.252 .36.036 .216-.252 .217-.288 .324.036 .215-.252 .217-.252 .215-.252 .217-.252 .181-.252 .217-.252 .215-.252 .217-.252 .218-.252 .18-.252 .215-.252 .217-.252 .217-.252 .216-.252 .18-.252-.107-.252 .181-.252 .217-.252 .215-.252-.143-.288 .215-.252 .217-.252-.146-.288 .181-.252 .217-.252h-.324l.18-.252 .218-.252-.146-.288-.145-.288 .217-.252h-.359l.216-.252-.146-.288 .217-.252-.371-.036-.145-.288 .217-.252h-.36l.217-.252-.146-.288-.358-.036 .215-.252-.144-.252-.36-.036 .217-.252-.359-.036-.145-.252-.146-.288-.323-.036-.144-.252-.145-.288-.359-.036-.145-.288h-.361l-.359-.036-.358-.036 .215-.252h-.359l-.323-.036-.359-.036h-.359l-.36-.036-.324-.036-.576.252-.359-.036-.323-.036h-.359l-.359-.036-.36-.036-.181.252-.358-.036h-.361l-.358-.036-.181.252-.358-.036h-.361l-.539.216-.359-.036h-.36l-.216.252-.323-.036-.361-.036-.574.252-.323-.036-.218.252-.358-.036h-.361l-.18.252-.359-.036-.576.216-.539.252-.217.252-.324-.036-.217.252-.359-.036-.215.252-.182.252h-.359l-.217.252-.196.252z" fill="#fff" stroke="#000" stroke-miterlimit="10" stroke-width=".036"/>
 <path d="m355.626,9.202-.216.252-.54.216-.575.252-.216.252-.575.216-.218.252-.18.252-.576.216-.215.252-.576.252-.182.252-.215.252-.576.216-.217.252-.215.252-.541.216-.216.252-.217.252-.217.252-.539.216-.432.504-.217.252-.216.252-.182.252-.574.252-.217.252-.217.252-.215.252-.181.252-.217.252-.217.252-.215.252-.217.252-.216.252-.396.504-.217.252 .145.252-.217.252-.215.252-.217.252-.396.504 .145.288-.215.252-.217.252 .146.288-.433.504-.217.252 .145.252-.182.252-.215.252 .145.288-.217.252-.217.252 .145.288-.215.252 .144.252-.216.252 .144.288-.215.252 .145.288 .144.252 .145.288 .324.036-.18.252h.323l.359.036 .359.036 .145.252 .324.036 .576-.216h.358l.324.036 .359.036 .576-.252 .323.036 .218-.252 .358.036h.359l.217-.252 .324.036 .576-.216 .539-.216 .217-.252h.358l.218-.252 .575-.216 .181-.252 .576-.216 .215-.252 .576-.252 .54-.216 .216-.252 .575-.216 .433-.504 .541-.216 .576-.252 .432-.504 .539-.216 .434-.504 .576-.216 .215-.252 .757-.468 .217-.252 .791-.504 .217-.252 .756-.468 .217-.252 .433-.504 .575-.216 .216-.252 .432-.504 .217-.252 .541-.216 .433-.504 .215-.252 .217-.252 .215-.252 .434-.504 .216-.252 .217-.252 .432-.504 .181-.252 .217-.252 .432-.504 .217-.252-.145-.288 .432-.504 .217-.252 .216-.252 .071-.504 .218-.252 .215-.252 .217-.252 .072-.54 .18-.252-.107-.288 .181-.216 .215-.288-.144-.252 .216-.252-.144-.288 .215-.252-.145-.288-.144-.252-.145-.288-.359-.036 .215-.252h-.358l-.359-.036-.326-.036h-.36l-.576.216-.359-.036-.575.216h-.359l-.541.216-.359-.036-.217.252h-.358l-.576.216-.359-.036-.576.216-.539.252-.575.216-.576.216-.576.252-.541.216-.359-.036-.217.252-.576.216-.539.252-.217.252-.359-.036-.585.216z" fill="#fff" stroke="#000" stroke-miterlimit="10" stroke-width=".036"/>
 <path d="m271.244,67.378-.108-.288 .182-.252 .215-.252-.358-.036 .215-.252 .217-.252-.145-.252 .217-.252-.146-.288 .181-.252 .217-.252-.324-.036 .18-.252 .213-.252-.145-.252 .217-.252 .181-.252-.324-.036 .215-.252 .182-.252 .359.036h.324l.18-.252 .359.036 .541-.252 .323.036 .216-.252 .323.036h.359l.182-.252 .324.036 .07-.54 .072-.54-.144-.252 .433-.504 .034-.54-.106-.288 .072-.504 .034-.54 .433-.504-.144-.288 .07-.504 .037-.54 .215-.252 .072-.54 .037-.54 .071-.504-.145-.288 .396-.504 .07-.54-.143-.252 .071-.54 .07-.54 .396-.504-.144-.288 .07-.504 .037-.54-.146-.288 .432-.504 .037-.504 .072-.54-.145-.288 .071-.54 1.224-.18 .864-.18 .9-.216 .863-.216 .899-.216 .685.072 .899-.216 .863-.216 .9-.216 .862-.18 .9-.216 .9-.216 .862-.18 .9-.216 .9-.216 .538-.216 .9-.216 .865-.216 .897-.18 .687.036 .897-.216 .541-.216 .9-.216 .863-.216 .899-.18 .539-.252 .9-.216 .899-.18 .539-.252 .9-.18 .9-.216 .538-.216 .9-.216 .541-.216 .9-.216 .538-.216 .9-.216 .539-.252 .576-.216 .865-.216 .791-.468 .541-.216 .539-.252 .899-.18 .539-.252 .576-.216 .541-.216 .539-.252 .576-.216 .899-.216 .539-.216 .541-.216 .756-.504 .9-.216 .576-.216 .539-.216 .575-.216 .9-.216 .324.036 .899-.216 .574-.252 .9-.18 .541-.216 .899-.216 .574-.216 .687.036 .897-.216 .541-.216 .9-.216 .719.072 .899-.216 .541-.216 .72.036 .899-.216 .9-.18 .684.036 .9-.216 .576-.216 .684.036 .9-.18 .719.036 .9-.216 .684.072 .9-.216 .721.036 .899-.18 .685.036 .899-.216 .72.072 1.26-.18 .686.036 .685.072 .936-.216 .685.036 1.26-.18 .686.072-.434.504-.07.504-.434.504-.396.504-.108.54-.215.252-.072.504-.432.504-.072.54-.432.504-.072.504-.433.504-.071.54-.433.504-.071.54-.435.468-.106.54 .145.288-.432.504-.072.504-.432.504-.109.54-.07.504-.434.504-.072.54-.106.54-.396.468-.106.54-.072.54-.433.504-.106.504-.072.54-.647.756-.072.504-.107.54-.071.504-.433.504-.106.54-.072.54-.109.504-.069.54-.109.504-.072.54-.432.504-.107.504-.071.54-.107.54-.072.504-.106.54-.289.756-.107.54-.071.504-.107.54-.109.504-.432.504-.072.54-.3.756-.109.54-.071.54-.107.504-.324.792-.071.504-.107.54-.324.756-.071.54-.107.504-.647.756-.107.54-.107.504-.289.792-.106.504-.324.792-.106.504-.324.792-.109.504-.287.792-.432.504-.324.756-.106.54-.324.756-.109.54-.322.756-.108.54-.324.756-.107.504-.323.792-.648.756-.106.504-.324.792-.324.756-.107.54-.323.756-.324.792-.107.504-.323.792-.324.756-1.224.18-.647-.036-.9.216-1.188.18-.685-.036-.864.216-1.226.18-.646-.036-.9.18-.863.216-1.225.18-.648-.036-.862.216-.9.216-.863.18-.673-.036-.899.216-1.188.18-.899.216-.863.216-.647-.036-.9.18-.863.216-.865.216-.862.216-.9.216-.539.216-.864.216-.863.216-.9.18-.647-.036-.863.216-.863.216-.541.216-1.115.468-.864.216-.863.216-.541.216-.863.216-.862.216-.541.216-1.08.468-.539.216-.865.216-.898.216-.721.468-.899.216-.539.216-.865.216-.539.252-.721.468-.863.216-.541.216-.863.216-.541.216-.863.216-.756.504-.862.216-.541.216-.863.216-.541.216-.539.252-.647-.036-.539.216-.865.216-.539.216-.865.216-.322-.036-.864.216-.504.252-.685-.036-.504.216-.865.216-.321-.036-.865.216h-.324l-.539.216-.647-.036-.539.216-.648-.036-.541.252-.646-.036-.324-.036-.541.216-.648-.036-.504.252-.684-.036-.324-.036-.324-.036-.828.216h-.321l-.648-.036-.324-.036-.541.216-.646-.036h-.324l.072-.54 .106-.504 .396-.504 .072-.54 .106-.54-.106-.252 .395-.504 .072-.54 .106-.504 .072-.54 .109-.54 .395-.504 .072-.504 .106-.54 .072-.504 .217-.252 .072-.54 .072-.54 .106-.504 .072-.54 .396-.504 .107-.504 .072-.54 .072-.54 .395-.504-.107-.252 .072-.54 .072-.54 .106-.504 .396-.504 .072-.54 .071-.504h.359l.324.036 .647.036 .322.036h.324l.36.036h.324l.322.036h.324l.324.036 .647.036 .359.036h.323l.541-.216 .324.036h.322l.324.036h.324l.684.072h.324l.324.036h.323l.324.036h.324l.358.036 .648.036 .324.036h.324l.323.036 .359.036h.324l.324.036-.218.252-.215.252-.541.216-.18.252-.217.252h-.324l-.215.252-.217.252-.181.252-.215.252-.541.216-.217.252-.215.252-.181.252-.217.252-.217.252-.215.252-.18.252-.218.252-.215.252-.217.252 .324.036-.181.252-.217.252-.215.252 .143.252-.215.252 .324.036-.217.252 .145.252 .107.288 .324.036-.218.252h.324l.324.036-.18.252h.323l.107.288 .324.036 .106.252 .324.036h.359l.324.036-.216.252h.324l.324.036 .322.036 .108.252 .359.036h.324l.323.036h.324l.324.036 .215-.252 .324.036 .217-.252h.324l.18-.252 .539-.216 .217-.252 .539-.252 .218-.252 .215-.252 .217-.252 .18-.252 .218-.252 .323.036 .216-.252 .217-.252 .215-.252 .217-.252 .18-.252 .218-.252 .215-.252 .217-.252-.324-.036 .217-.252 .181-.252 .215-.252-.107-.252 .218-.252 .18-.252-.107-.288 .215-.252-.106-.252 .18-.252-.106-.288 .323.036h.324l.322.036h.361l.323.036 .107.288h.324l.323.036h.359l.324.036 .324.036h.323l.324.036h.322l.324.036-.181.252h.324l.324.036 .324.036h.341l.324.036-.108-.288h-.324l-.107-.288-.145-.252-.322-.036-.108-.288h-.324l-.144-.288-.108-.252-.324-.036-.107-.288h-.358l-.109-.288h-.322l-.108-.288-.359-.036-.106-.252-.324-.036h-.324l-.146-.288h-.323l-.107-.288-.324-.036h-.358l-.109-.288h-.322l-.323-.036-.146-.288h-.324l-.323-.036-.107-.252-.359-.036-.323-.036h-.324l-.107-.288h-.36l-.324-.036-.324-.036h-.322l-.323-.036h-.361l-.324-.036h-.322l-.323-.036-.146-.288h-.324l-.323-.036h-.324l-.539.216-.324-.036h-.324l-.358-.036h-.324l-.324-.036-.324-.036h-.323l-.324-.036h-.359l-.324-.036-.323-.036h-.324l-.324-.036-.143-.252-.324-.036-.324-.036h-.324l-.358-.036h-.324l-.324-.036-.324-.036 .218-.252h-.361l-.324-.036-.107-.252-.323-.036 .18-.252-.324-.036h-.321l.18-.252-.324-.036 .215-.252h-.322l.181-.252-.324-.036-.106-.288-.146-.252 .215-.252-.324-.036 .183-.252h-.324l.215-.252 .541-.252 .648.036 .862-.18 .541-.252 .646.036 .899-.18h.324l.863-.216 .324.036 .865-.216 .684.036 .539-.216 .647.036 .541-.216 .685.036 .539-.252 .647.072h.324l.863-.216 .36.036 .863-.216 .324.036 .648.036 .358.036 .863-.216h.324l.684.072h.324l.541-.216 .647.036 .359.036 .648.036h.323l.685.072h.324l.538-.216 .685.036 .324.036h.323l.685.036 .324.036 .323.036 .685.036h.324l.323.036 .47.288 .323.036h.322l.324.036 .686.036 .322.036h.324l.145.288 .648.036 .324.036h.358l.324.036 .469.288 .322.036 .324.036 .108.252 .359.036h.324l.467.288-.215.252-.217.252-.433.504-.217.252-.215.252-.217.252-.181.252-.215.252-.217.252-.217.252-.215.252-.433.504-.217.252-.18.252-.217.252 .108.288-.217.252-.217.252-.215.252 .143.252-.215.252-.217.252 .108.288-.217.252 .145.252-.217.252 .324.036-.217.252 .324.036-.216.252h.359l.324.036h.324l.323.036-.217.252 .324.036 .217-.288 .324.036 .359.036h.323l.324.036h.324l.322.036 .541-.216h.358l.324.036h.324l.217-.252 .322.036 .324.036h.323l.324.036 .217-.252h.359l.324.036 .323.036 .539-.252 .324.036h.324l.541-.216 .359.036 .18-.252h.359l.217-.252 .324.036 .215-.252h.324l.217-.252 .215-.216 .217-.252 .217-.252 .215-.252-.143-.288 .215-.252 .217-.252-.108-.252 .217-.252-.107-.288-.145-.288 .217-.252-.108-.252-.107-.288 .217-.252-.108-.252-.144-.288 .215-.252h-.324l-.106-.288 .217-.252-.145-.288-.107-.252-.108-.288-.146-.252-.106-.288 .323.036h.324l.359.036 .323.036h.324l.324.036 .145.252 .324.036 .322.036h.324l.36.036h.324l.322.036 .324.036h.36l.324.036h.322l.109.288 .358.036h.324l.324.036h.323l.359.036 .324.036h.324l.323.036h.359l.324.036 .324.036 .106.252 .324.036h.359l-.216.252 .107.288-.217.252 .108.252-.217.252 .107.288-.215.252-.218.252h.361l-.217.252 .106.288-.215.252 .324.036-.217.216 .106.288-.215.252 .322.036 .145.252-.215.252 .324.036h.322l-.215.252 .323.036h.324l-.217.252 .359.036 .323.036h.324l.217-.252 .324.036h.322l.217-.216h.359l.217-.252 .217-.252 .322.036 .217-.252 .539-.252 .217-.216h.324l.217-.252 .252-.252 .322.036 .217-.252 .217-.252 .539-.216 .218-.252 .215-.252 .217-.252h.324l.252-.252 .215-.252 .217-.252 .217-.252 .215-.252 .218-.252 .215-.252h-.322l.215-.252 .218-.252-.146-.288 .217-.252-.108-.252 .217-.252-.107-.288 .215-.252-.106-.252 .215-.252-.106-.288-.146-.252-.106-.288 .217-.252-.109-.252 .217-.252-.324-.036-.145-.252 .217-.252-.324-.036 .218-.252-.109-.288-.106-.252-.359-.036 .215-.252h-.314l.215-.252-.324-.036-.358-.036-.217.252h-.324l-.215.252-.324-.036-.217.252-.539.252-.217.252-.576.216-.215.252-.541.216-.216.252h-.323l-.218.252-.215.216h-.324l-.217.252-.215.252-.361-.036-.215.252-.217.252h-.324l-.215.216-.217.252-.217.252-.107-.252-.324-.036-.467-.288-.324-.036h-.323l-.146-.288h-.324l-.684-.072h-.324l-.106-.288-.685-.036-.324-.036h-.323l-.47-.288-.323-.036-.685-.036-.324-.036-.647-.036-.144-.288-.647-.036h-.324l-.684-.072h-.324l-.684-.036-.433-.324-.686-.036h-.322l-.686-.072-.646-.036-.686-.036-.646-.036-.361-.036-.647-.036-.685-.036-.647-.036-1.008-.072-.685-.072-.647-.036-.685-.036-.971-.072-.686-.036-1.009-.072-.647-.036-1.008-.072-.685-.036-1.008-.072-.863.216-1.008-.072-.647-.036-1.009-.072-.686-.036-.971-.072-.685-.036-1.01-.072-.863.216-.647-.036-1.009-.072-.684-.036-.648-.072-.899.216-.646-.036-.686-.036-.646-.072h-.36l-.863.216-.324-.036-.647-.036-.359-.036-.647-.036-.539.216h-.361l-.646-.036-.323-.036-.541.216h-.324l-.359-.036h-.323l-.539.216-.324-.036h-.324l-.359-.036-.541.252-.323-.036-.324-.036-.215.252h-.324l-.324-.036-.217.252h-.322l-.541.216-.324-.036-.215.252-.541.252 .218-.252 .215-.252 .18-.252-.322-.036 .181-.252 .215-.252 .217-.252-.324-.036 .181-.252 .217-.252-.146-.252 .217-.252 .181-.252 .899-.216 1.188-.18 .863-.216 1.225-.18 .863-.216 .864-.216 1.224-.18 1.08-.468 .864-.216 1.188-.18 .9-.216 .862-.18 1.08-.468 .863-.216 .899-.216 1.08-.468 1.188-.18 .756-.468 .865-.216 1.115-.468 .864-.216 1.08-.432 1.08-.468 .898-.216 1.08-.468 .756-.468 .865-.216 1.079-.432 1.115-.468 .756-.504 1.08-.432 .756-.504 1.08-.468 .756-.468 1.08-.468 .757-.468 1.116-.468 .756-.468 .757-.504 1.08-.432 .756-.504 .971-.72 1.08-.468 .793-.468 .756-.468 .973-.756 .757-.468 .756-.468 .973-.756 .756-.468 .972-.72 .756-.504 .973-.72 .973-.72 .757-.504 .971-.72 .647-.756 .757-.468 .973-.756 .973-.72 .646-.756 .973-.72 .433-.504 .973-.756-.217.252 .108.288-.182.252-.215.252 .106.288-.18.252 .107.252-.216.252-.217.252 .359.036-.215.252-.218.252 .146.252 .145.288-.217.252 .324.036-.217.252 .145.252 .324.036-.18.252 .323.036 .144.252 .324.036 .36.036h.322l.361.036 .323.036h.359l.217-.252 .322.036h.361l.215-.252 .324.036 .541-.216 .575-.252 .324.036 .215-.252 .359.036 .541-.252 .576-.216 .539-.216 .575-.252 .218-.252 .323.036 .216-.252 .541-.216 .215-.252h.36l.216-.252 .541-.216 .215-.252 .217-.252 .217-.252 .215-.252 .217-.252-.145-.252 .217-.252 .215-.252-.323-.036 .217-.252-.146-.288 .218-.216-.361-.036 .217-.252-.106-.288-.146-.252-.145-.288-.107-.288-.145-.252-.144-.288-.108-.288h-.359l.217-.252-.36-.036-.107-.288h-.359l-.145-.288h-.324l-.359-.036 .216-.252-.324-.036h-.359l-.358-.036-.324-.036h-.372l-.324-.036-.36-.036h-.359l-.324-.036-.358-.036-.541.252-.359-.036-.324-.036-.215.252h-.361l-.323-.036-.216.252-.36-.036-.539.252-.359-.036-.541.216h-.358l-.433.504-.541.216-.215.252-.217.252-.541.216-.215.252-.217.252-.757.504-.215.252-.541.216-.215.252-.217.252-.541.216-.215.252-.432.504-.541.216-.216.252-.541.252-.215.252-.217.252-.541.216-.215.252-.433.504-.54.216-.216.252-.541.252-.215.252-.217.252-.541.216-.432.504-.215.252-.541.216 .217-.252 .756-.468 .215-.252 .182-.252 .216-.252 .217-.252 .432-.504 .181-.252 .217-.252 .215-.252 .217-.252 .217-.252 .215-.252 .181-.252 .217-.252 .217-.252-.145-.252 .215-.252 .217-.252 .217-.252-.36-.036 .217-.252 .215-.252-.359-.036 .218-.252-.146-.252-.324-.036 .218-.252-.361-.036 .217-.252h-.358l-.324-.036-.361-.036-.143-.252-.324-.036-.359-.036h-.323l-.361-.036h-.324l-.358-.036-.324-.036h-.359l-.541.216-.359-.036h-.358l-.324-.036-.359-.036-.54.252-.359-.036-.324-.036-.541.252-.359-.036-.323-.036-.215.252h-.361l-.55.216-.217.252-.324-.036-.215.252-.217.252-.215.252-.182.252-.216.252-.217.252-.215.252 .144.288-.216.252-.18.252-.217.252 .145.288-.217.252 .146.252-.218.252-.215.252 .144.288-.216.252-.217.252 .146.288-.217.252 .145.252-.217.252-.181.252 .324.036-.215.252-.182.252 .108.288-.18.252h.322l-.215.252-.218.252 .146.288-.217.252 .36.036-.217.252 .146.252-.218.252 .324.036-.18.252 .106.288 .146.252 .145.288-.217.252-.756.468-.217.252-.757.504-.756.468-.539.216-.756.504-.541.216-.756.468-.541.252-.756.468-.575.252-.722.468-.215.252-.758.468-.539.252-.541.216-.756.468-.576.252-.539.216-.756.504-.541.216-.539.216-.539.252-.758.468-.539.216-.541.252-.215.252-.541.216-.756.504-.539.216-.541.216-.539.252-.541.216-.539.252-.541.216-.539.216-.541.252-.539.216-.539.252-.541.216-.358-.036-.541.252-.539.216-.541.252-.539.216-.541.216h-.324l-.539.216-.541.216h-.358l-.539.216-.504.252-.361-.036-.539.216-.541.252-.324-.036-.539.252-.324-.036-.539.216h-.36l-.539.216h-.324l-.541.216-.322-.036 .181-.252 .539-.216 .432-.504 .182-.252 .539-.252 .433-.504 .18-.252 .541-.216 .215-.252 .396-.504 .541-.216 .215-.252 .18-.252 .756-.504 .218-.252 .18-.252 .756-.468 .217-.252 .18-.252 .541-.252 .433-.504 .18-.252 .576-.216 .18-.252 .433-.504 .18-.252 .541-.252 .432-.504 .181-.252 .541-.216 .215-.252 .396-.504h.359l.18-.252 .541-.216 .217-.252 .322.036 .217-.252 .539-.252 .217-.252 .541-.216 .216-.252 .18-.252h.361l.215-.252 .18-.252 .217-.252 .324.036 .215-.252 .217-.252 .181-.252 .217-.252 .215-.252 .182-.252 .216-.252 .217-.252 .18-.252 .215-.252 .218-.252 .18-.252 .217-.252-.324-.036 .181-.252 .217-.252-.146-.288 .218-.252h-.324l.18-.252-.145-.288 .217-.252-.146-.288 .218-.252h-.361l.217-.252-.145-.288 .217-.252-.324-.036-.145-.252 .18-.252-.107-.288-.145-.288-.146-.252-.143-.288-.324-.036 .181-.252h-.324l.18-.252-.324-.036h-.358l-.324-.036-.359-.036-.541.252-.324-.036-.215.252-.541.216-.215.252-.541.252-.18.252-.215.252-.217.252-.181.252-.217.252-.215.252-.183.252-.215.252-.18.252-.217.252-.215.252-.183.252-.215.252-.217.252-.18.252-.218.252-.18.252 .109.288-.183.252-.215.252-.217.252-.18.252 .145.288-.217.252-.396.504-.215.252 .146.252-.435.504-.18.252 .145.288-.432.504-.18.252-.072.54-.217.252-.181.252-.071.54-.539.216-.217.252-.539.216-.218.252-.18.252-.541.252-.215.252-.541.216-.395.504-.541.252-.215.252-.541.216-.218.252-.18.252-.539.252-.217.252-.539.216-.18.252-.541.216-.218.252-.539.252-.217.252-.18.252-.539.216-.217.252-.539.252-.18.252-.759.468-.215.252-.541.252-.18.252-.225.252z" fill="#fff" stroke="#000" stroke-miterlimit="10" stroke-width=".036"/>
 <path d="m289.71,50.998-.216.252h-.323l-.218.252-.215.252-.182.252-.215.252-.324-.036-.217.252-.215.252-.181.252-.217.252-.217.252-.18.252-.216.252-.217.252 .359.036-.215.252 .358.036h.324l.359.036 .323.036h.324l.359.036 .324.036h.36l.181-.252 .358.036h.324l.217-.252 .324.036 .215-.252-.145-.288 .217-.252-.146-.252 .218-.252-.359-.036 .215-.252-.145-.288h-.324l.182-.252-.108-.288-.144-.288-.145-.252-.324-.036-.133-.288z" fill="#fff" stroke="#000" stroke-miterlimit="10" stroke-width=".036"/>
 <path d="m313.291,45.958-.18.252-.217.252-.215.252-.217.252-.181.252-.215.252-.217.252 .324.036-.181.252-.217.252 .146.252-.218.252 .324.036-.18.252 .324.036h.358l.324.036 .217-.252 .322.036h.361l.323.036 .576-.252 .322.036 .217-.252 .324.036h.359l.541-.216 .358.036 .227-.252h.324l.215-.252 .324.036 .217-.252 .359.036 .217-.252 .181-.252-.109-.288 .182-.252-.323-.036-.146-.252-.106-.288-.361-.036 .217-.252h-.359l-.108-.288-.359-.036-.145-.252-.324-.036-.143-.288h-.361l-.324-.036-.358-.036-.181.252h-.358l-.324-.036-.217.252h-.359l-.217.252-.539.216-.224.252z" fill="#fff" stroke="#000" stroke-miterlimit="10" stroke-width=".036"/>
 <path d="m334.062,42.862-.359-.036-.215.252-.217.252-.217.252-.322-.036-.217.252-.217.252 .36.036-.217.252-.217.252-.215.252-.218.252-.215.252h.359l-.217.252 .36.036 .324.036h.359l.324.036 .358.036h.324l.359.036 .323.036 .576-.252 .324.036 .359.036 .217-.252h.324l.215-.252 .217-.252h-.324l.181-.252-.324-.036 .217-.252-.359-.036-.108-.252-.359-.036 .217-.252h-.36l.217-.252-.324-.036-.145-.288h-.359l-.107-.288-.36-.036h-.322z" fill="#fff" stroke="#000" stroke-miterlimit="10" stroke-width=".036"/>
 <path d="m323.443,77.962-.324-.036-.215.252-.217.252-.217.252-.215.252-.218.252-.215.252-.217.252-.217.252 .324.036-.212.252-.217.252-.215.252-.217.252 .107.252-.216.252 .324.036h.322l.36.036 .324.036h.322l.217-.252 .324.036 .576-.252 .324.036 .215-.252 .217-.252h-.324l.217-.252 .216-.252-.359-.036 .252-.252-.146-.288-.106-.252 .217-.252-.324-.036 .216-.252h-.324l.217-.252-.359-.036 .215-.252h-.323l.217-.252-.326-.036z" fill="#fff" stroke="#000" stroke-miterlimit="10" stroke-width=".036"/>
 <path d="m302.599,80.59-.217.252-.324-.036-.215.252-.217.252-.216.252-.217.252-.217.252-.18.252 .108.288-.217.252-.217.252-.215.252h.323l-.18.252-.217.252 .324.036-.218.252h.324l.324.036 .359.036h.323l.218-.252 .323.036h.324l.324.036 .322.036 .217-.252h.359l.541-.216 .215-.252 .182-.252-.324-.036 .215-.252h-.323l.217-.252-.324-.036 .217-.252h-.36l.217-.252-.324-.036-.106-.288h-.324l.18-.252-.324-.036 .217-.252h-.323l-.107-.288-.36-.036h-.324l.217-.252z" fill="#fff" stroke="#000" stroke-miterlimit="10" stroke-width=".036"/>
 <path d="m279.306,88.906-.539.216-.541.216-.215.252-.217.252h-.324l-.215.252-.181.252-.217.252-.217.252-.215.252-.324-.036-.217.252-.181.252-.215.252 .324.036-.217.252-.217.252h.36l.107.288 .324.036 .106.252 .324.036h.359l.323.036-.215.252 .324.036 .539-.252 .324.036 .215-.252-.144-.288 .216-.252 .217-.252 .217-.252h-.324l.181-.252 .215-.252-.107-.288 .217-.252-.145-.288 .217-.252-.109-.252 .218-.252-.146-.288-.106-.252 .221-.252z" fill="#fff" stroke="#000" stroke-miterlimit="10" stroke-width=".036"/>
 <path d="m356.527,29.794 .433-.504 .217-.252 .432-.504 .217-.252 .181-.252 .432-.504 .576-.216 .215-.252 .217-.252 .217-.252h.359l.217-.252 .215-.252 .324.036 .576-.216h.359l-.215.252 .323.036 .144.288h.36l-.217.252 .146.288-.218.252 .146.288 .106.252-.215.252 .144.288 .145.288-.106.504-.218.252-.071.54 .145.252-.072.54-.106.54-.072.504-.072.54-.106.504-.072.54-.287.792-.108.504-.287.792-.109.504-.287.792-.287.756-.323.792-.289.756-.324.792-.287.792 .035.792-.324.756-.504,1.044-.324.756-.18,1.044-.539,1.044-.289.756-.18,1.08-.539,1.008-.541,1.044-.396,1.296-.323-.036-.253.252-.323-.036-.218.252h-.358l-.217.216-.552.252-.575.216-.218.252-.323-.036-.215.252h-.361l-.215.252-.324-.036-.217.252-.359-.036-.217.252h-.322l-.217.252-.576.216-.539.216-.252.252h-.324l-.217.252-.358-.036-.218.252-.323-.036-.216.252 .324-.756 .287-.792 .324-.756 .504-1.044 .324-.756 .287-.792 .323-.756 .324-.792 .289-.756 .322-.792 .289-.792 .287-.756 .323-.792 .289-.756 .324-.792 .287-.756 .324-.792 .287-.756 .289-.792 .323-.792 .287-.756 .504-1.044 .324-.756 .289-.792 .287-.756 .287-.792 .324-.792 .289-.756 .286-.792 .289-.756 .324-.792 .293-.756z" fill="#fff" stroke="#000" stroke-miterlimit="10" stroke-width=".036"/>
 <path d="m345.583,57.694-.505,1.044-.323.756-.324.792-.289.756-.322.792-.324.756-.323.792-.289.756-.468.504-.288.792-.324.756-.322.792-.109.504-.323.792-.072.504-.322.792-.434.504-.107.504-.324.792-.106.504-.433.504-.108.54-.322.756-.108.54-.433.468-.106.54-.109.504-.107.54-.432.504 .107.252-.107.54-.432.504-.107.504 .107.288-.433.504 .107.252-.433.504 .107.288-.432.504 .106.252 .107.288-.433.504 .109.252-.217.252 .106.288-.215.252 .107.252-.217.252-.216.252 .107.288-.217.252 .108.252-.217.252 .107.288 .108.252-.217.252 .324.036-.217.252h.324l.323.036h.361l.215-.252 .324.036 .324.036 .539-.252 .36.036h.324l.215-.216h.324l.324.036 .252-.252h.324l.323.036 .324.036 .215-1.044 .576-1.044 .324-.756 .541-1.008 .574-1.044 .323-.756 .541-1.044 .216-1.044 .323-.756 .576-1.008 .541-1.044 .324-.756 .539-1.044 .541-1.008 .322-.756 .217-1.08 .324-.756 .538-1.008 .541-1.044 .324-.756 .539-1.044 .541-1.008v-.792l.539-1.044 .541-1.008 .324-.792 .539-1.008 .539-1.008 .289-.792 .539-1.008 .217-1.044 .287-.792h.002l-.541.216h-.359l-.217.252-.324-.036-.215.252-.361-.036-.539.252-.358-.036-.217.252-.324-.036-.217.252h-.359l-.539.216-.361-.036-.199.252h-.323l-.576.216-.541.216h-.36l-.215.252-.324-.036-.217.252-.361-.036z" fill="#fff" stroke="#000" stroke-miterlimit="10" stroke-width=".036"/>
 <path d="m318.115,95.35-.324-.036-.215.252h-.323l-.541.216-.539.216-.576.252-.541.216-.215.252-.541.252-.539.216-.217.252-.539.216-.218.252-.215.252-.217.252-.576.216-.217.252 .109.288-.218.252-.215.252-.217.252 .107.252-.216.252 .107.288-.217.252 .108.252 .107.288-.217.252 .108.252-.108.54 .108.252 .107.288 .107.252 .108.288-.108.504 .108.288 .107.252 .071.288 .107.252 .107.288 .217.54 .106.252 .109.288 .107.288 .106.252 .324.036 .106.252 .433.288 .072.288h.323l.109.288h.322l.108.288h.324l.322.036h.324l.323.036 .324.036h.324l.324.036 .647.036h.324l.322.036 .541-.216h.324l.647.036 .539-.216h.324l.324.036 .538-.216h.324l.576-.216 .541-.252 .322.036 .541-.216h.324l.539-.216 .54-.252 .324.036 .215-.252 .576-.216h.324l.217-.252 .539-.216 .217-.252 .252-.252 .216-.252 .217-.252 .217-.252 .215-.252 .217-.252-.071-.252 .215-.252 .217-.252-.106-.252 .215-.252-.07-.288 .215-.252-.106-.252 .215-.252-.107-.288-.106-.252 .215-.252 .145-.54-.106-.252 .215-.252-.107-.288h-.324l-.106-.288 .217-.252-.109-.252-.071-.288 .217-.252h-.324l.217-.252-.108-.288h-.322l.215-.252-.324-.036-.106-.252-.107-.288h-.323l-.109-.288h-.318l-.108-.288h-.324l-.107-.288-.324-.036h-.323l-.107-.288h-.359l-.323-.036-.072-.252-.359-.036-.323-.036h-.324l-.107-.288h-.324l-.323-.036h-.324l-.107-.288h-.323l-.324-.036-.324-.036-.107-.252-.36-.036h-.324l-.322-.036-.323-.036h-.324l-.324-.036-.541.252-.322-.036h-.36l-.216.252-.323-.036-.23.252z" fill="#fff" stroke="#000" stroke-miterlimit="10" stroke-width=".036"/>
 <path d="m296.371,100.57-.215.252-.217.252h-.324l-.215.216-.217.252-.217.252-.215.252-.541.252-.216.252-.217.252-.217.252-.539.216-.18.252-.218.252-.432.504-.539.216-.217.252-.217.252-.433.504-.539.252-.217.252-.432.504-.217.252-.216.252-.432.504-.217.252-.217.252-.215.216-.181.252-.432.504-.217.252-.218.252-.215.252-.217.252 .107.288-.433.504-.215.252-.217.252 .106.252-.432.504-.215.252 .106.288-.432.504 .107.252-.218.252-.106.54-.215.252-.218.252-.106.504-.217.252 .106.288-.215.252 .107.252 .106.288-.215.252 .107.252-.218.252 .109.288 .107.252-.218.252 .324.036-.215.252h.324l.106.288h.324l.324.036h.287l.324.036 .217-.252h.324l.321.036 .541-.252 .324.036 .539-.216h.324l.217-.252 .324.036 .504-.252 .539-.216 .541-.252 .539-.216 .217-.252 .324.036 .215-.252 .541-.252 .215-.252 .541-.216 .215-.252h.324l.217-.216 .215-.252 .541-.252 .217-.252 .216-.252 .217-.252 .539-.216 .217-.252 .215-.252 .434-.504 .539-.216 .218-.252 .215-.252 .217-.252 .215-.252 .435-.504 .539-.252 .217-.252 .215-.216 .217-.252 .432-.504 .218-.252 .252-.252 .215-.252 .217-.252-.108-.288 .434-.504 .215-.252 .217-.252 .215-.216-.106-.288 .217-.252 .215-.252-.106-.252 .432-.504-.107-.288 .218-.252-.109-.252 .433-.504-.107-.288-.107-.252 .215-.252 .109-.54-.109-.252 .218-.252-.107-.288-.108-.252 .217-.252 .106-.54-.106-.252-.107-.288 .215-.252h-.323l-.107-.288 .217-.252-.108-.288-.107-.252-.324-.036 .217-.252h-.323l-.107-.288h-.36l-.216.252-.323-.036-.541.216-.539.252-.541.216-.539.252-.217.252-.324-.036-.215.252-.541.216-.216.252h-.323l-.218.252-.215.252-.323-.036-.218.252-.539.252-.217.252-.539.216-.324-.036 .216-.252 .217-.252 .217-.252 .215-.216 .217-.252 .539-.252 .218-.252-.218.252z" fill="#fff" stroke="#000" stroke-miterlimit="10" stroke-width=".036"/>
 <path d="m270.558,106.906h.324l.182-.252 .322.036h.324l.323.036 .218-.252-.218.252-.323-.036-.504.252-.539.216-.541.252-.539.216h-.324l-.217.252-.324-.036-.18.252-.539.252-.541.216-.539.216-.217.252-.505.252-.215.252-.541.216-.215.252-.506.252-.215.252-.217.252-.216.252-.323-.036-.218.252-.18.252-.217.252-.215.252-.217.252-.216.252-.18.252-.217.252-.217.252-.216.252-.217.252-.18.252-.217.252-.215.252-.218.252 .109.288-.182.252-.216.252-.217.252 .107.252-.215.252-.218.252 .146.288-.217.252 .108.252-.217.252 .324.036-.217.252h.323l.109.288 .107.252 .323.036h.324l.107.288 .323.036h.324l.107.288h.324l.287.036 .647.036 .107.252 .323.036h.324l.648.072h.287l.323.036 .648.036h.324l.323.036 .648.036h.287l.324.036h.324l.323.036 .863-.216 .289.036h.324l.321.036h.324l.217-.252 .324.036h.324l.504-.216 .539-.252 .324.036 .217-.252 .324.036 .215-.252 .541-.252 .287.036 .217-.252 .539-.252 .217-.252 .539-.216 .217-.252 .539-.252 .217-.252 .181-.216h.324l.217-.252 .215-.252 .217-.252 .539-.216 .217-.252 .216-.252 .217-.252 .217-.252 .215-.252 .217-.252 .181-.252 .217-.252 .215-.252-.324-.036 .217-.252 .216-.252 .217-.252-.107-.252 .433-.504 .215-.252-.107-.288 .217-.252-.108-.252 .217-.252-.107-.288 .181-.252-.107-.252-.108-.288 .217-.252-.107-.252 .215-.252-.106-.288-.107-.252 .215-.252-.106-.288-.107-.252-.312-.036 .216-.252-.144-.252-.324-.036 .216-.252-.324-.036-.107-.252-.323-.036-.107-.252-.324-.036h-.324l-.323-.036-.107-.252-.324-.036-.324-.036h-.323l-.324-.036-.539.252-.324-.036h-.324l-.323-.036h-.324l-.215.216h-.324l-.324-.036-.504.252-.324-.036-.539.252-.323-.036-.541.252-.324-.036-.539.216-.541.252-.324-.036-.516.252z" fill="#fff" stroke="#000" stroke-miterlimit="10" stroke-width=".036"/>
 <path d="m282.619,101.83 .324.036h.324l.324.036-.181.252h.324l.322.036h.324l.323.036-.215.252h.324l.322.036 .108.288h.324l-.217.252 .324.036 .106.252 .324.036-.217.252h.324l-.21.252 .323.036-.217.252-.18.252h.324l-.218.252-.215.252 .324.036-.217.252-.217.252 .108.252-.217.252-.217.252-.215.252 .538-.216 .218-.252 .323.036 .216-.252 .217-.252h.324l.215-.252 .217-.252 .541-.216 .215-.252 .217-.252 .216-.252 .18-.252 .217-.252 .217-.252 .215-.252 .218-.252 .215-.252 .217-.252 .217-.252 .215-.252 .218-.252 .215-.252h-.324l.217-.252 .181-.252 .217-.252 .215-.252-.322-.036 .215-.252 .218-.252 .215-.252h-.324l.217-.252 .217-.252-.108-.288-.324-.036-.215.252h-.324l-.217.252-.324-.036-.539.252-.324-.036-.215.252h-.324l-.541.216-.538.216-.541.252-.324-.036-.539.252-.541.216-.324-.036-.215.252h-.324l-.217.252-.324-.036h-.322l-.217.252-.324-.036-.215.252h-.324l-.546.216z" fill="#fff" stroke="#000" stroke-miterlimit="10" stroke-width=".036"/>
 <path d="m306.091,94.846 .358.036 .218-.252h.323l.324.036 .539-.252 .324.036 .539-.216h.324l.54-.216h.324l.359.036 .217-.252 .322.036h.324l.541-.216h.323l.324.036 .215-.252 .324.036 .541-.252 .359.036h.323l.216-.252 .323.036h.324l.541-.216 .322.036h.324l.217-.252 .359.036 .541-.216-.218.216h-.323l-.576.216-.539.252-.324-.036-.217.252-.539.216-.541.252-.215.252-.324-.036-.217.252h-.359l-.217.216-.215.252-.541.252-.215.252-.324-.036-.217.252-.216.252-.217.252h-.324l-.215.216-.217.288-.217.216-.215.252-.541.252-.216.252-.217.252-.215.252-.217.252-.217.252-.215.216-.218.252-.215.252-.252.252-.217.252 .217-.252h-.324l-.323-.036 .215-.252h-.322l.215-.252-.324-.036 .218-.252h-.324l.217-.252-.324-.036 .215-.252h-.323l.217-.252-.324-.036 .217-.252-.108-.252 .217-.252-.324-.036 .217-.252-.106-.252 .217-.252-.324-.036 .217-.252-.108-.288 .217-.252-.107-.252 .179-.252z" fill="#fff" stroke="#000" stroke-miterlimit="10" stroke-width=".036"/>
 <path d="m237.259,71.266-.072.54-.252.792-.035.504-.072.54-.252.792-.071.504-.037.54-.252.792-.072.54-.07.504-.252.792-.037.54-.071.54-.252.756-.396.504-.07.54-.252.792-.071.54-.037.504-.287.792-.037.54-.07.504-.289.792-.035.54-.071.54-.252.756-.072.54-.072.54-.252.756-.396.504-.072.54-.252.792 .504-.252 .324.036 .541-.216h.323l.181-.252 .324.036h.358l.18-.252 .324.036h.324l.217-.252 .322.036h.324l.217-.252 .324.036 .324.036 .18-.288 .324.036 .323.036 .216-.252h.323l.324.036 .217-.252 .072-.54 .07-.54 .576-.756 .071-.504 .252-.792 .072-.54 .072-.504 .252-.792 .072-.54 .071-.54 .252-.756 .072-.54 .287-.792 .035-.504 .072-.54 .252-.792 .071-.54 .072-.504 .252-.792 .072-.54 .072-.504 .575-.792 .072-.504 .252-.792 .07-.54 .037-.504 .252-.792 .072-.54 .071-.54 .252-.756 .035-.54 .289-.792-.217.252h-.324l-.539.216-.324-.036-.217.288-.324-.036-.323-.036-.215.252h-.324l-.541.216h-.324l-.18.252-.359-.036-.324-.036-.18.252h-.359l-.504.216h-.36l-.504.216h-.359l-.18.252-.323-.036z" fill="#fff" stroke="#000" stroke-miterlimit="10" stroke-width=".036"/>
 <path d="m247.267,68.71-.252.792-.037.54-.07.504-.071.54-.252.792-.072.54-.037.504-.611.756-.035.54-.071.54-.252.792-.072.504-.072.54-.252.792-.072.504-.071.54-.252.792-.072.54-.07.504-.252.792-.072.54-.071.504-.252.792-.072.54-.072.54-.252.756-.072.54-.071.54-.072.504-.252.792-.07.54-.072.504 .324.036 .539-.252 .324.036 .324.036 .18-.288 .359.036 .504-.216h.323l.541-.216 .072-.54 .611-.756 .072-.54 .071-.504 .252-.792 .072-.54 .07-.504 .072-.54 .252-.792 .071-.504 .072-.54 .611-.756 .037-.54 .071-.54 .287-.756 .037-.54 .07-.54 .289-.756 .035-.54 .071-.54 .289-.792 .035-.504 .396-.504 .287-.792 .036-.54 .072-.504 .07-.54 .252-.792 .072-.54 .036-.504 .287-.792 .037-.54h-.324l-.217.252-.324-.036-.323-.036-.539.252-.324-.036h-.324l-.215.252-.324-.036-.323-.036-.541.252-.359-.036z" fill="#fff" stroke="#000" stroke-miterlimit="10" stroke-width=".036"/>
 <path d="m254.683,67.342-.252.792-.072.504-.035.54-.071.54-.253.792-.071.504-.072.54-.611.756-.036.54-.072.504-.252.792-.072.54-.07.54-.071.504-.253.792-.071.54-.072.504-.611.756-.071.54-.037.54-.287.792-.072.504-.072.54-.071.504-.252.792-.072.54-.07.54-.612.756-.072.504-.07.54-.072.54-.252.756 .504-.216 .359.036 .18-.288 .324.036 .359.036 .182-.252h.322l.541-.216 .539-.252 .324.036 .18-.252h.36l.505-.216 .323.036 .216-.252h.323l.541-.216h.324l.215-.252 .324.036 .539-.252 .072-.504 .071-.54 .396-.504 .072-.54 .286-.756 .072-.54 .072-.54 .396-.504 .072-.504 .252-.792 .072-.54 .07-.504 .434-.504 .035-.54 .287-.792 .071-.504 .072-.54 .396-.504 .071-.54 .252-.792 .072-.504 .072-.54 .395-.504 .072-.54 .289-.756 .035-.54 .072-.54 .396-.504 .072-.54 .252-.756 .069-.54 .072-.54-.539.252-.324-.036h-.358l-.504.216-.361-.036h-.324l-.215.252-.324-.036h-.323l-.324-.036-.217.252-.322-.036h-.361l-.539.216h-.323l-.324-.036-.539.216h-.324l-.541.216h-.324l-.364-.036z" fill="#fff" stroke="#000" stroke-miterlimit="10" stroke-width=".036"/>
 <path d="m264.404,65.326-.252.756-.072.54-.071.54-.252.792-.433.504-.037.504-.071.54-.287.792-.072.504-.035.54-.289.792-.396.504-.07.54-.072.504-.252.792-.071.54-.072.504-.289.792-.396.504-.071.54-.289.756-.035.54-.107.54-.071.504-.252.792-.396.504-.072.54-.286.756-.072.54-.072.54-.072.504-.286.792 .215-.252 .324.036h.323l.324.036h.324l.539-.216h.324l.323.036 .359.036 .504-.252 .361.036h.324l.323.036 .322.036 .217-.288 .324.036 .324.036-.252-.576 .287-.756 .071-.54 .289-.756 .07-.54 .072-.54 .289-.756 .071-.54 .252-.792 .07-.504 .289-.792 .072-.54 .071-.504 .287-.792 .072-.54 .252-.756 .072-.54 .072-.54 .286-.756 .072-.54 .252-.792 .072-.504 .287-.792 .071-.54 .072-.504 .252-.792 .072-.54 .252-.792 .072-.504 .072-.54 .286-.792 .037-.504-.324-.036-.217.252-.324-.036-.18.252h-.358l-.181.252-.36-.036-.539.252-.324-.036-.217.252h-.324l-.539.216-.324-.036-.217.252h-.317z" fill="#fff" stroke="#000" stroke-miterlimit="10" stroke-width=".036"/>
 <path d="m186.643,81.346h-.324l-.18.252-.324-.036-.504.252-.36-.036-.18.252h-.324l-.324-.036-.18.252h-.324l-.504.216-.36-.036-.18.288-.324-.036-.504.216h-.324l-.504.216h-.36l-.18.252-.324-.036-.072,1.08-.396,1.044-.432,1.044 .108.828-.396,1.044-.396,1.044-.252.792-.396,1.008-.216.792-.252.792 .108.828-.216.792-.252.792-.216.756-.576.792-.216.792-.036.504-.252.792-.036.54-.216.792-.396.504-.036.54-.216.792-.072.54-.36.504 .144.252-.072.54-.36.504-.036.54-.216.252-.036.54-.18.252 .144.288-.396.504-.18.252 .144.288-.18.252-.18.252 .108.288-.18.252-.18.252 .144.252-.144-.252 .18-.252 .18-.252-.108-.288 .18-.252 .18-.252-.144-.288 .18-.252 .396-.504-.144-.288 .324.036h.324l.324.036h.324l.324.036h.324l.288.036 .216-.252h.324l.324.036h.288l.324.036 .324.036 .252-.792 .252-.792 .216-.792 .252-.792 .036-.54 .576-.756 .216-.792 .072-.504 .216-.792 .072-.54 .54-.756 .036-.54 .252-.792 .36-.504 .036-.54 .252-.792 .36-.504 .072-.54 .036-.54 .36-.504 .036-.54 .396-.504 .036-.54 .36-.504 .036-.54-.108-.252 .36-.54 .36-.504 .036-.504 .216-.288 .036-.504 .18-.252 .036-.54 .18-.252 .18-.252 .036-.54 .216-.252 .18-.252-.144-.288 .18-.252 .36-.504 .18-.288-.144-.252 .18-.252 .18-.288 .216-.252 .18-.252h-.324l.18-.252 .18-.288 .18-.252 .18-.252 .18-.252z" fill="#fff" stroke="#000" stroke-miterlimit="10" stroke-width=".036"/>
 <path d="m171.775,86.278 .324.036 .18-.252h.324l.54-.216 .324.036 .18-.288 .324.036 .18-.252h.324l.504-.216h.324l.18-.252 .324.036 .216-.252h.324l.324.036 .18-.252-.216.792-.216.792-.252.792-.036.504-.216.792-.216.792-.216.792-.036.54-.252.792-.216.792-.216.792-.036.54-.252.756-.216.792-.216.792-.036.54-.252.792-.216.792-.216.792-.252.792-.036.504-.216.792-.252.792-.216.792 .252.54-.216.792-.252.792-.216.792-.072.54-.216.756-.252.792-.216.792h-.324l-.18.252-.324-.036-.504.252-.504.216h-.324l-.18.252-.324-.036-.18.252h-.324l-.18.252h-.324l-.504.216 .216-.792 .252-.792 .216-.792 .036-.504 .252-.792 .216-.792 .072-.54 .216-.792-.072-.792 .216-.792 .036-.54 .252-.792 .216-.792 .216-.792 .036-.504 .252-.792 .216-.792 .216-.792-.288-.54 .252-.792 .216-.792 .036-.54 .216-.792 .216-.792 .252-.792 .036-.54 .216-.756 .216-.792-.108-.828 .036-.54 .216-.792 .216-.792z" fill="#fff" stroke="#000" stroke-miterlimit="10" stroke-width=".036"/>
 <path d="m169.363,87.754-.324-.036-.504.252-.324-.036-.504.252-.504.216-.648-.036-.504.252-.324-.036-.54.252-.324-.036-.504.252-.324-.036-.504.252-.648-.036-.504.216-.504.252-.324-.036-.504.252-.324-.036-.504.252-.324-.036-.54.252-.648-.072-.504.252-.504.216h-.324l-.504.216h-.324l-.504.216h-.324l-.504.216-.648-.036 .144.288-.18.252-.18.252 .324.036-.18.252-.18.252 .144.288-.18.252-.18.252 .324.036-.18.252-.18.252 .324.036-.18.252-.18.252 .18.252 .468-.216 .36.036h.324l.504-.252 .324.036 .324.036 .504-.252 .324.036h.324l.504-.216h.324l.324.036 .18-.252h.324l.324.036h.324l.18-.252 .324.036h.324l.324.036 .18-.252h.324l.324.036h.324l.504-.216 .324.036h.324l.324.036-.18.252h.324l.324.036-.18.252 .324.036-.18.252-.324-.036-.18.252-.504.252-.504.216h-.324l-.18.252-.324-.036-.18.252h-.324l-.504.216h-.324l-.504.216-.504.252-.324-.036-.504.252-.324-.036-.504.252-.324-.036-.504.252-.324-.036-.504.252-.324-.036-.504.252-.324-.036-.504.252-.324-.036-.504.252-.18.252 .324.036-.18.252 .144.288-.18.252h.324l-.18.252-.18.288h.324l-.18.252-.18.252 .324.036-.18.252 .324.036 .504-.252 .324.036 .504-.252 .324.036 .504-.252 .324.036 .504-.252 .504-.252 .324.036 .324.036 .504-.252 .324.036 .504-.252 .324.036h.324l.18-.252 .324.036h.324l.324.036 .18-.252h.324l.324.036h.324l-.18.252-.216.252h-.288l-.216.252-.18.252h-.324l-.18.252-.324-.036-.18.252-.504.252-.504.216h-.324l-.18.252-.324-.036-.18.288-.324-.036-.18.252h-.324l-.504.216-.504.252-.324-.036-.18.252h-.324l-.504.216-.504.252-.324-.036-.504.252-.468.216h-.324l-.504.216h-.324 .324l.612.072h.324l.504-.216h.324l.324.036h.324l.324.036 .504-.252 .324.036h.324l.324.036h.324l.324.036 .504-.252 .324.036 .324.036h.324l.324.036h.324l.324.036h.324l.324.036-.18.252 .324.036-.18.252-.216.252-.18.252-.324-.036-.18.252-.504.252-.504.252-.324-.036-.18.252h-.324l-.288-.036-.504.252-.324-.036h-.324l-.324-.036-.324-.036h-.324l-.18.252-.324-.036h-.324l-.324-.036h-.324l-.324-.036h-.324l-.504.216h-.324l-.324-.036-.18.252h-.324l.144.252 .324.036-.18.252 .324.036-.18.252-.18.252-.18.252 .324.036-.18.252-.18.252 .144.252-.18.288 .504-.252 .504-.252 .324.036 .504-.252 .504-.216 .504-.252 .324.036 .468-.252 .504-.216h.324l.18-.252 .324.036h.324l.504-.216 .504-.252 .324.036 .504-.252 .324.036 .504-.252 .324.036 .504-.252 .324.036h.324l.18-.252 .324.036h.324l-.18.252 .324.036-.18.252-.18.252-.216.252-.18.252h-.324l-.18.252-.324-.036-.18.252-.504.252-.504.252-.288-.036-.216.252-.504.252-.324-.036-.18.252h-.288l-.504.216h-.324l-.18.252-.324-.036-.504.252-.504.216h-.324l-.18.252-.324-.036h-.324l-.504.216-.504.252-.18.252 .144.288 .144.252-.18.288h.324l-.18.252 .108.288 .144.288-.18.252 .144.252 .144.288-.18.252 .324.036-.18.252 .144.252 .108.288-.18.252 .324.036-.18.252h.324l-.18.288 .504-.252 .324.036 .18-.288 .324.036 .504-.252 .288.036 .504-.252 .504-.216h.324l.504-.216h.324l.18-.252 .324.036 .504-.252 .504-.216h.324l.18-.252 .324.036 .504-.252 .324.036 .504-.252 .504-.252 .288.036 .504-.252 .324.036 .18-.252 .54-.252 .288.036 .504-.252 .324.036 .252-.792 .036-.54 .216-.792 .072-.54 .216-.756 .252-.792 .036-.54 .216-.792-.252-.54 .216-.792 .036-.54 .216-.792 .072-.54 .216-.756 .216-.792 .036-.54 .252-.792 .036-.54 .216-.792 .036-.54 .216-.792 .252-.792 .036-.504 .216-.792 .036-.54 .216-.792 .036-.54 .216-.792 .216-.792 .036-.504 .216-.792 .036-.54z" fill="#fff" stroke="#000" stroke-miterlimit="10" stroke-width=".036"/>
 <path d="m18.703,69.214c11.484-31.716 20.052-55.008 61.992-59.508 22.572-2.412 35.784,16.848 42.804,34.956 .828,2.196 6.768,15.156 5.544,17.1 11.88.684 14.544-44.352 38.7-35.172 14.904,5.688 10.62,45.036 2.592,56.412-2.016,2.844-16.668,4.176-20.34,5.112 1.044,1.908-1.944,5.76-.936,7.74-14.292,3.744-29.556,8.028-44.244,9.864 8.892-13.536-3.384-33.588-20.916-28.8-11.448,3.132-26.748,6.516-35.244,15.336-2.736,2.844-8.676,20.196-10.512,20.736-7.236,2.052-13.068-.612-20.268,1.44-3.312-1.908-4.32-1.224-10.224-1.836 3.42-16.416 6.192-30.024 11.052-43.38z" fill="#fff" stroke="#000" stroke-miterlimit="10" stroke-width=".036"/>
 <path d="m105.355,108.454 .144.252-.144.288-.18.252 .144.252-.144.288-.18.252h.324l-.18.252-.18.288h.324l.144.288h.324l.324.036 .324.036h.324l.324.036h.288l.324.036 .504-.252 .324.036h.324l.288.036 .504-.252 .324.036h.324l.792-.216 .324.036h.324l.792-.216 .324.036 .504-.252 .648.036 .792-.216 .504-.252 .648.036 .468-.216 .648.036 .828-.216 .792-.216 .504-.252 .792-.216 .648.036 .828-.216 .792-.216 .828-.216 .828-.216 .792-.216 1.152-.216 .792-.216 .828-.216 .828-.216 1.116-.18 .828-.252 .828-.216 1.296-.432 .828-.216 1.116-.216 .828-.216 1.332-.432 1.116-.216 .828-.216 1.332-.468 1.152-.18 1.296-.468 1.152-.18 1.332-.468 1.152-.18 1.296-.468-.144-.252 .18-.288 .18-.252h-.324l.18-.288 .18-.252 .18-.252h-.324l.18-.252 .18-.288-.144-.252 .18-.252 .18-.288-.144-.252-.648-.036-.504.216-.828.216-.648-.036-.504.252-.648-.036-.792.216-.828.216-.324-.036-.828.216-.828.216h-.324l-.828.216-.828.216-.324-.036-.828.216-.792.216h-.324l-.828.216-.828.216-.324-.036-.828.216-.792.216-.504.252-.648-.036-.828.216-.504.216-.612-.036-.828.216-.504.252-.828.216-.648-.036-.468.216-.828.216-.828.216h-.324l-.792.216-.828.216-.504.252-.648-.036-.792.216-.504.216-.792.216-.648-.036-.504.252-.828.216-.468.216-.828.252-.648-.036-.468.216-.828.216-.792.216-.504.252-.648-.036-.504.216-.792.252-.828.216-.468.216-.648-.036-.504.252-.792.216-.828.216-.468.252-.828.216z" fill="#fff" stroke="#000" stroke-miterlimit="10" stroke-width=".036"/>
 <path d="m105.967,113.566-.18.288-.18.252h.324l-.18.252-.144.288-.18.252 .144.288-.18.252-.144.252-.18.252 .324.036-.18.252-.18.252-.18.252 .18.288-.18.252-.18.252 .144.288-.18.252-.144.252-.18.252 1.116-.18 1.296-.468 .792-.216 1.116-.216 .828-.216 .792-.216 1.116-.18 .828-.252 1.116-.18 .792-.216 .828-.216 .792-.216 1.152-.216 .792-.216 .828-.216 .792-.216 .828-.216 .792-.216 .648.036 .792-.216 .828-.216 .792-.252 .828-.216 .792-.216 .828-.216 .828-.216 .468-.216 .828-.252 .648.036 .792-.216 .504-.216 .828-.216 .792-.216 .504-.252 .828-.216 .288.036 .828-.216 .504-.252 .828-.216 .468-.252 .648.036 .504-.216 .504-.252 .828-.216 .288.036 .504-.252 .504-.252 .504-.216 .648.036 .504-.252 .468-.216h.324l.504-.216 .504-.252 .324.036 .504-.252 .504-.216h.324l.18-.252 .468-.252 .324.036 .504-.252 .504-.216-.324-.036-.648-.036h-.288l-.504.216-.648-.036-.324-.036-.648-.036h-.324l-.828.216-.324-.036-.612-.036-.504.252-.648-.036-.324-.036-.648-.036-.504.252-.612-.036-.504.216-.648-.036-.648-.036-.504.252-.612-.036-.504.216-.648-.036-.648-.036-.504.252-.612-.072-.828.252-.324-.036-.828.216-.612-.036-.504.252-.828.216-.648-.072-.792.252-.324-.036-.828.216-.792.216-.648-.036-.828.216h-.324l-.792.216-.828.216-.648-.036-.792.216-.828.216-.468.216-.648-.036-.828.216-.792.216-.828.252-.612-.072-.828.252-.792.216-.828.216-.792.216-.828.216-.648-.036-.792.216-.792.216-.828.216-.792.216-.828.216-.792.216z" fill="#fff" stroke="#000" stroke-miterlimit="10" stroke-width=".036"/>
 <path d="m105.427,121.846c12.384-2.772 29.952-7.56 43.632-11.124-1.224,1.692-1.872,3.204-2.808,4.5 .108,0-.468-.396.324,0 .792.432 2.844,1.584 2.808,1.692 5.256.324 8.1-.828 14.22-2.484-7.38,18.503-9.144,37.728-24.48,52.343-13.5,12.889-30.276.289-25.308-16.848-1.368-.898-.612-6.517.072-7.488h-.324c.036-.107.108-.18.18-.252-6.084-.322-16.776,25.92-18.9,29.629-3.42,5.977-6.624,12.133-10.08,18.107-13.752,23.832-63.252,81.252-78.696,29.664-1.692-5.724-1.476-12.707-1.548-18.539-.108-13.142.504-26.785.54-40.861 .072-17.639.432-32.146 2.916-48.851 14.256.9 21.06-5.796 33.66-12.204-1.98,16.452-4.32,22.572-1.836,37.153 2.484,14.615 4.392,16.523 10.44,20.592 6.012,4.031 12.204.576 18.216-1.368s16.236-7.021 20.268-11.375c6.048-6.013 3.708-3.386 7.452-8.857-.108-.035-.216-.035-.324-.035 2.304-3.53 6.336-11.09 9.576-13.394z" fill="#fff"/>
 <path d="m87.283,83.074c-14.076,5.436-26.856,8.532-36.9,20.916-8.064,9.937-7.056,39.816 6.732,44.064 19.584,6.012 32.616-11.771 40.608-23.976-3.024.864-43.416,9.396-46.62,9.179 2.304-3.563 45.972-10.151 47.88-13.104-.108-.036-.18-.036-.288-.036 .468-.684.396-1.116.864-1.836h-.324c.468-.72.432-1.116.864-1.836-.108,0-.216,0-.288-.036 .036-.072.108-.144.144-.252-7.92,3.924-44.964,8.604-37.836,5.04-.108,0 27-6.372 26.892-6.372 .432-.684 10.764-1.548 11.196-2.268-.108,0-.072-1.008-.144-1.008 .324-.54.18-1.224.504-1.728-4.248-.252-34.416,6.3-38.628,6.048 2.196-3.348 36.324-6.048 38.988-8.784 2.484-2.52 2.268-19.8-1.26-19.98 .288-.468-.9-1.404-1.44-1.44 .036-.108.108-.18.144-.288-3.024-.179-6.984-2.051-11.088-2.303z" fill="#fff" stroke="#000" stroke-miterlimit="10" stroke-width=".036"/>
 <path d="m225.992,73.21-.396.504-.037.54-.252.756-.07.54-.037.54-.252.792-.071.504-.035.54-.252.792-.037.54-.072.504-.252.792-.07.54-.037.54-.575.756-.072.54-.035.504-.289.792-.035.54-.072.54-.252.756-.071.54-.035.54-.252.792-.072.504-.072.54-.252.792-.038.504-.071.54-.576.756-.072.54-.072.54h.324l.324.036 .217-.252h.322l.324.036 .18-.252h.324l.324.036 .217-.252 .324.036 .504-.252 .323.036 .539-.252 .324.036 .541-.252 .322.036 .504-.252 .324.036 .541-.252 .071-.504 .253-.792 .395-.504 .072-.54 .252-.792 .072-.504 .036-.54 .287-.792 .037-.504 .252-.792 .07-.54 .072-.54 .252-.756 .071-.54 .037-.54 .252-.792 .072-.504 .252-.792 .07-.54 .037-.504 .61-.792 .037-.504 .07-.54 .252-.792 .037-.54 .252-.756 .072-.54 .034-.54 .253-.792 .071-.504 .037-.54 .252-.792-.182.252h-.318l-.361-.036-.18.252-.324-.036-.539.252-.323-.036-.218.252h-.323l-.324-.036-.18.252h-.359l-.504.216-.359-.036-.504.252-.324-.036-.217.252h-.324l-.539.216h-.323l-.183.252z" fill="#fff" stroke="#000" stroke-miterlimit="10" stroke-width=".036"/>
 <path d="m215.802,74.686-.215.792-.072.504-.037.54-.252.792-.035.54-.072.504-.215.792-.072.54-.036.54-.576.756-.072.54-.035.504-.252.792-.072.54-.034.54-.252.792-.037.504-.072.54-.252.792-.035.54-.072.504-.252.792-.035.54-.071.54-.576.756-.037.504-.07.54-.252.792-.072.54-.036.504-.252.792-.072.54 .504-.252 .324.036 .541-.252 .323.036 .505-.216h.323l.539-.216h.324l.324.036 .18-.252h.324l.539-.216h.324l.504-.216h.323l.541-.216 .324.036 .252-.792 .07-.54 .037-.54 .287-.756 .037-.54 .252-.792 .071-.54 .072-.504 .574-.756 .037-.54 .072-.54 .252-.792 .071-.504 .215-.792 .072-.54 .072-.54 .252-.756 .035-.54 .072-.54 .252-.792 .037-.54 .071-.504 .215-.792 .072-.54 .252-.792 .037-.504 .07-.54 .576-.756 .036-.54 .072-.54 .215-.792 .072-.504-.358-.036-.505.252-.323-.036-.218.252-.323-.036h-.324l-.18.252-.359-.036-.504.252-.324-.036-.217.252h-.32l-.324-.036-.217.252-.324-.036-.18.288-.324-.036-.539.216h-.323l-.541.216h-.326z" fill="#fff" stroke="#000" stroke-miterlimit="10" stroke-width=".036"/>
 <path d="m206.298,76.738-.072.54-.215.756-.037.54-.07.54-.217.792-.072.54-.035.504-.252.792-.037.54-.034.54-.252.792-.361.504-.07.504-.252.792-.037.54-.035.54-.252.792-.071.504-.037.54-.252.792-.035.54-.072.54-.217.756-.07.54-.037.54-.575.756-.072.54-.035.504-.252.792-.072.54-.035.54-.252.792 .504-.252 .324.036 .504-.252 .322.036 .541-.252 .324.036 .504-.252 .324.036 .215-.252h.324l.323.036 .181-.252h.323l.324.036 .181-.252h.323l.324.036 .217-.252 .324.036h.322l.182-.252 .07-.54 .072-.504 .217-.792 .072-.54 .252-.792 .071-.504 .035-.54 .576-.756 .072-.54 .035-.54 .252-.792 .071-.504 .037-.54 .252-.792 .035-.54 .252-.756 .072-.54 .035-.54 .252-.792 .037-.54 .071-.504 .253-.792 .034-.54 .252-.792 .037-.54 .396-.504 .217-.756 .072-.54 .035-.54 .252-.792 .037-.54 .034-.504-.323-.036-.324-.036-.181.288-.358-.036-.504.216h-.324l-.541.216-.504.252-.322-.036-.217.252h-.324l-.324-.036-.18.252h-.359l-.504.216-.323-.036-.181.288-.36-.036-.324-.036-.18.252h-.326z" fill="#fff" stroke="#000" stroke-miterlimit="10" stroke-width=".036"/>
 <path d="m193.375,80.194-.576.756-.035.54-.037.504-.215.792-.072.54-.035.54-.217.792-.035.54-.072.504-.217.792-.035.54-.071.54-.218.792-.071.504-.035.54-.541.756-.07.54-.037.54-.252.792-.035.54-.036.504-.253.792-.034.54-.072.54-.216.792-.072.504-.035.54-.072.54-.216.792-.072.504-.36.54-.252.756 .324.036 .18-.252h.324l.324.036 .179-.252h.324l.323.036 .213-.252 .324.036 .504-.252 .324.036 .504-.252 .322.036 .506-.252 .359.036 .504-.252 .324.036 .504-.252 .324.036 .252-.792 .358-.504 .252-.792 .072-.54 .035-.54 .252-.756 .037-.54 .071-.54 .252-.792 .035-.504 .037-.54 .252-.792 .07-.54 .217-.792 .072-.504 .035-.54 .252-.792 .037-.54 .035-.54 .252-.756 .36-.54 .252-.756 .035-.54 .037-.54 .252-.792 .035-.54 .035-.504 .252-.792 .037-.54 .071-.54 .216-.792 .04-.504-.323-.036-.181.252-.323-.036-.541.252-.324-.036-.504.252-.324-.036-.215.252h-.324l-.504.216h-.324l-.539.216h-.324l-.18.252-.324-.036h-.323l-.218.252-.323-.036-.181.252h-.322z" fill="#fff" stroke="#000" stroke-miterlimit="10" stroke-width=".036"/>
 <path d="m92.143,6.142c12.924-.936 24.048-.216 34.344,2.16 10.188,2.376 18.756,6.156 26.28,11.772-3.744,2.34-7.56,6.336-11.448,12.384-3.996,6.048-7.884,13.752-12.06,23.508-.612-11.448-4.068-21.024-10.224-29.412-6.3-8.388-15.084-15.048-26.892-20.412z" fill="#fff" stroke="#000" stroke-miterlimit="10" stroke-width=".036"/>
 <path d="m149.671,29.038 5.58-6.192c11.088-3.672 19.368-5.22 25.38-4.644 5.94.576 7.344,3.636 9.9,8.063 2.34,4.428 3.564,10.368 4.646,18.252 1.08,7.92 1.69,17.136 1.836,28.476l-21.024,6.48c6.012-15.228 8.28-27.216 6.804-36.504-1.548-9.396-10.332-16.524-15.804-18.864-5.582-2.375-11.306-.683-17.318,4.933z" fill="#fff" stroke="#000" stroke-miterlimit="10" stroke-width=".036"/>
 <path d="m167.31 116.3c-3.564 10.116-6.372 18.288-8.964 25.055-2.52 6.518-3.24 9.396-6.192 14.869-3.132 5.58-7.02 11.484-12.06 18.252 14.436-6.947 25.128-13.859 32.472-20.736 7.2-6.983 7.956-13.248 11.16-20.735 3.132-7.561 5.652-15.66 7.704-24.443-8.028 2.554-16.056 5.146-24.12 7.738z" fill="#fff" stroke="#000" stroke-miterlimit="10" stroke-width=".036"/>
 <path d="m107.587,153.13c-.108,2.123.36,5.58 1.548,10.512 1.08,4.932 2.88,11.088 5.256,18.863 .36.108-3.708,4.284-12.348,12.385-8.748,8.207-33.84,31.932-39.312,36.18-5.436,3.961 1.872-4.969 6.804-12.061 4.86-7.199 15.804-19.295 22.284-30.312 6.3-11.123 11.556-22.75 15.768-35.567z" fill="#fff" stroke="#000" stroke-miterlimit="10" stroke-width=".036"/>
 <path d="m112.555,167.349 4.32,13.285c6.66-1.404 10.116-2.484 10.512-3.385 .288-.863-5.868-.287-8.352-1.871-2.52-1.621-4.68-4.392-6.48-8.029z" fill="#fff" stroke="#000" stroke-miterlimit="10" stroke-width=".036"/>
</svg>
