<?xml version="1.0" encoding="UTF-8"?>
<svg viewBox="0 0 182.25517 86.66098" transform="scale(-1,1)" xmlns="http://www.w3.org/2000/svg">
 <defs>
  <linearGradient id="a" x1="-403.88" x2="-358.15" gradientUnits="userSpaceOnUse">
   <stop stop-color="#86b9c8" offset="0"/>
   <stop stop-color="#a5c074" stop-opacity="0" offset="1"/>
  </linearGradient>
 </defs>
 <g transform="matrix(.47352 0 0 .62539 329.4 -207.85)">
  <path d="m-423.49 386.93s23.626 22.182 37.516 27.8c0.63045 0.25501 2.3319 0.37014 2.3319 0.37014l37.293-20.002 1.8338 6.7612-35.249 21.662s-2.5696 2.5397-4.0476 2.4875-4.5637-2.0505-4.5637-2.0505l-42.457-32.07 7.3418-4.9587z" fill="#272e56" fill-rule="evenodd"/>
  <path transform="matrix(1.5172 0 0 1.5172 220.94 -204.42)" d="m-385.71 374.51a20.714 20.714 0 1 1 -41.429 0 20.714 20.714 0 1 1 41.429 0z" fill="#f4d7d7"/>
  <path d="m-425.29 374.93-73.638 19.928 8.3621 36.429s17.378-4.4704 23.939-7.2757c23.308-9.9651 52.342-35.939 52.342-35.939l-11.005-13.143z" fill="#272e56" fill-rule="evenodd"/>
  <path d="m-489.81 431.08s-42.79 12.586-61.617 12.714c-12.993-2.3374-58.571-11.429-58.571-11.429l4.2857-12.287s53.256 8.0466 55.714 8.0012c2.6467-0.04883 37.143-12.857 37.143-12.857s-50.941 3.4778-55.714 2.8571-55.04-13.285-55.04-13.285l7.8172-11.288s44.005 8.6599 50.377 10.002c0.96716 0.20368 2.3062 0.41337 3.309 0.37725 11.21-0.41049 63.914-9.0914 63.914-9.0914l8.3829 36.285z" fill="#272e56" fill-rule="evenodd"/>
  <path transform="matrix(.90045 0 0 .91686 33.575 -77.392)" d="m-445.98 478.34a3.7881 4.2932 0 1 1 -7.5762 0 3.7881 4.2932 0 1 1 7.5762 0z" fill="#05080c"/>
  <path transform="translate(63.64 -116.67)" d="m-445.98 478.34a3.7881 4.2932 0 1 1 -7.5762 0 3.7881 4.2932 0 1 1 7.5762 0z" fill="#05080c"/>
  <path d="m-395.71 332.36c-17.349 0-31.437 14.089-31.438 31.438s14.089 31.406 31.438 31.406c4.9395 0 9.6212-1.123 13.781-3.1562-18.34-1.8731-32.344-11.895-32.344-23.969 0-13.406 17.271-24.281 38.562-24.281 1.4808 0 2.9374 0.0538 4.375 0.15625-5.7644-7.0745-14.545-11.594-24.375-11.594z" fill="#272e56"/>
  <path d="m-401.06 352.84c3.2686-4.3164 7.3118-5.8867 14.927-5.7604 4.2896 0.07114 7.143-0.02233 10.752 0.09468 4.9347 0.16 9.2778-0.97285 12.387 3.0858 3.4187 3.8385 3.9208 12.509 2.859 18.566-0.78793 4.4953-2.9111 6.2241-6.128 7.0499-3.264 0.83785-3.5618 1.2191-6.4497-1.7538-1.4215-1.7762-3.5734-5.6983-5.966-4.6684-2.5527 1.2521-6.2376 5.5044-8.8024 6.7781-2.3717 1.4792-5.0128 2.0238-7.593 2.4045-4.159-0.17453-7.1549-5.2246-8.113-10.201-1.1049-5.2582-0.98753-11.483 2.1269-15.595z" fill="url(#a)" fill-rule="evenodd" stroke="#264e26" stroke-width="1.8238"/>
  <path transform="matrix(.97471,-.22345,.22345,.97471,0,0)" d="m-576.84 246.27h51.91a18.567 11.871 0 0 1 18.567 11.871v2.0405a18.567 11.871 0 0 1 -18.567 11.871h-51.91a18.567 11.871 0 0 1 -18.567 -11.871v-2.0405a18.567 11.871 0 0 1 18.567 -11.871" fill="#e7c54d"/>
  <path d="m-379.63 376.65h2.1143a8.9429 9.2714 0 0 1 8.9429 9.2714v4.3143a8.9429 9.2714 0 0 1 -8.9429 9.2714h-2.1143a8.9429 9.2714 0 0 1 -8.9429 -9.2714v-4.3143a8.9429 9.2714 0 0 1 8.9429 -9.2714" fill="#1f2611"/>
  <path transform="matrix(.97296,-.23096,.23096,.97296,0,0)" d="m-508.49 248.7h3.0526a4.9022 5.7143 0 0 1 4.9022 5.7143 4.9022 5.7143 0 0 1 -4.9022 5.7143h-3.0526a4.9022 5.7143 0 0 1 -4.9022 -5.7143 4.9022 5.7143 0 0 1 4.9022 -5.7143" fill="#4c7aa9"/>
  <path d="m-475.28 387.68c-2.3116 3.448 5.4289 36.746 10.076 37.83 6.8354 1.5936 29.246-17.245 29.246-17.245s-2.4586-19.043 0.07347-23.111c1.7778-2.8562 6.0861-4.5428 9.0914-3.0305 3.0895 1.5546 5.3673 11.958 5.3673 11.958s5.7081-2.3162 5.4279-4.0298c-1.0108-6.1819-2.9973-12.171-13.314-14.713s-44.513 10.17-45.969 12.341z" fill="#9b6f25" fill-rule="evenodd"/>
  <g transform="matrix(.19236 .73326 -.83243 .16944 28.614 702.66)">
   <path d="m-539.37 494.11h50.577v5.3052h-50.577z" fill="#e1561f"/>
   <path d="m-536.29 491.3h6.566v11.112h-6.566z" fill="none" stroke="#dfe109" stroke-linecap="round" stroke-linejoin="round" stroke-width="3"/>
   <path d="m-498.51 491.22h6.566v11.112h-6.566z" fill="none" stroke="#dfe109" stroke-linecap="round" stroke-linejoin="round" stroke-width="3"/>
   <path d="m-518.99 491.45h9.1329v10.648h-9.1329z" fill="none" stroke="#dfe109" stroke-linecap="round" stroke-linejoin="round" stroke-width="3.4636"/>
  </g>
  <path d="m-619.7 387.08c3.2195 0.91596 4.4765 6.5716 4.4765 6.5716l-8.1262 11.162-9.0912-1.8855-41.42 22.679-21.77-26.653 57.316-4.0221s12.885-9.4816 18.615-7.8513z" fill="#202711" fill-rule="evenodd"/>
  <path d="m-611.43 415.22c3.3274-0.36441 6.4286 5.7143 6.4286 5.7143l-4.0995 11.624-10.186 3.3761-37.857 35-27.014-24.74 58.443-16.689s8.3634-13.637 14.286-14.286z" fill="#202711" fill-rule="evenodd"/>
  <path d="m-347 389.76c0.97598-3.056 3.165-3.6251 5.942-4.2663 1.2046-0.35822 4.195-0.51296 4.2627 1.8543-0.14664 1.0724-2.8668 1.7816-0.66182 2.0334 2.8185 0.67262 7.8955-3.4864 10.677-2.9657 1.6912 0.24454 2.9684 5.6878 1.8623 8.2828 0.41246 1.4714 1.7517 1.7753 0.86173 3.0709-0.84851 1.4476-2.5416 2.6872-3.4203 3.9791-2.0255 1.8483-4.6562 1.651-7.4008 2.3097-2.7642 0.22709-6.9415 0.11981-10.989-1.3833-2.2579-1.8123-1.1614-4.4316-1.7675-6.7254l0.03413-3.7523" fill="#272e56" fill-rule="evenodd"/>
  <path d="m-425.55 394.5-19.106 31.12 39.902-11.936 3.5553 8.1879-47.318 13.064s-7.4709 2.9601-9.659 1.4568c-2.713-1.864 1.2144-9.2003 1.2144-9.2003l22.23-37.167 9.181 4.4745z" fill="#272e56" fill-rule="evenodd"/>
  <path d="m-403.76 403.25c2.2801-3.1984 4.4616-3.5218 7.1914-3.8442 1.2215-0.22708 3.9112 0.00978 2.866 2.599-0.62868 1.1489-3.3404 1.5531-1.528 2.1265 2.1532 1.1153 7.5489-2.3453 9.7406-1.4006 1.3662 0.49586 0.93303 6.2177-1.2459 8.8959-0.32551 1.6596-0.55768 4.2997-1.9411 5.5911-1.4181 1.4627-2.6502 1.8828-4.022 3.1717-2.6352 1.7398-5.7057 1.5326-8.4153 1.8784-2.5254-0.1273-4.9734-1.4608-6.6912-3.8056-1.1307-2.2814 0.06381-5.97 0.60345-8.5522l1.7805-4.085" fill="#272e56" fill-rule="evenodd"/>
  <path d="m-434.11 368.91c-34.375 46.61 47.116 23.567 54.531 21.183l-1.4286-1.4286" fill="none" stroke="#000" stroke-linecap="round" stroke-linejoin="round" stroke-width="3"/>
 </g>
</svg>
