<?xml version='1.0' encoding='utf-8'?>
<svg xmlns="http://www.w3.org/2000/svg" version="1.1" width="600px" height="976px" viewBox="0 0 600 976"> <g id="layer1"> <g style="fill:rgb(0,0,0); fill-opacity:1.0; stroke-linejoin: miter"> <path d="M256.42795,321.12173C255.79915,321.9601,254.0699,325.209,252.55025,328.35318C251.083,331.44485,248.72491,336.05618,247.31007,338.51907C245.94762,340.98196,244.63757,344.23087,244.32317,345.75052C243.85155,348.2134,242.2271,351.61954,242.2271,350.09988C242.2271,349.78543,240.96945,348.8422,239.50221,348.05618C235.57207,346.06497,230.59392,346.01254,228.02623,347.9514C227.0306,348.68503,225.72054,349.47104,225.09172,349.6807C224.09608,349.99503,223.88649,349.8903,223.88649,348.94705C223.88649,347.47977,222.47163,347.06058,221.2664,348.16104C220.32317,348.99942,220.21837,349.05185,220.16597,348.26578C220.11356,347.7418,220.06116,347.2178,220.00874,346.95578C219.95634,346.74612,219.74675,345.85532,219.48473,344.9645C219.01312,342.97324,217.33626,342.03,215.65941,342.81607C214.9782,343.1304,214.45418,343.54965,214.45418,343.81168C214.45418,344.02127,214.03496,344.23087,213.51094,344.23087C211.99129,344.23087,210.36684,345.69815,209.68561,347.7418C209.3712,348.78983,208.58517,350.09988,207.95634,350.62393C207.32753,351.14792,207.17033,351.51468,207.53714,351.5671C208.53276,351.5671,208.27077,352.51035,207.11794,352.87717C205.70308,353.29642,205.80788,354.08243,207.27513,354.29202C209.05678,354.554,208.16597,355.49722,206.01749,355.54965C205.02187,355.54965,203.86902,355.75925,203.55461,355.9689C203.13539,356.23087,202.92578,355.91647,202.92578,355.02567C202.92578,354.29202,202.66377,353.55838,202.40176,353.40115C202.08736,353.19156,201.51094,352.30075,201.14412,351.30508C200.72491,350.36185,199.93889,349.4186,199.36247,349.26144C198.78606,349.05185,198.20963,348.26578,198.05241,347.4274C197.5808,345.22647,195.48474,344.54532,189.82533,344.85965C186.20961,345.0693,184.48035,345.43613,182.33188,346.53653C179.08298,348.1086,176.14847,350.57144,177.1441,350.93826C177.98254,351.20035,177.93015,352.0911,177.0393,352.0911C176.04367,352.0911,175.78166,353.03433,175.99127,355.65445C176.14847,357.48856,176.04367,357.85532,175.20525,357.85532C174.10481,357.85532,171.48473,362.7811,171.48473,364.82474C171.48473,366.50162,172.89957,370.4318,173.8428,371.47977C174.36682,372.05618,175.15285,372.26578,176.14847,372.1086C178.03494,371.8466,178.76855,373.26144,177.1441,374.15225C176.30568,374.62393,176.20088,374.83353,176.7773,375.20035C177.82533,375.82913,177.0917,376.24832,174.52402,376.51035C169.38866,377.08676,169.02184,377.61075,170.9083,381.33133C172.37555,384.21344,173.5808,385.1043,175.15285,384.4754C175.88647,384.16107,177.0917,383.8466,177.93015,383.79422C179.869,383.58463,180.91704,382.6414,180.91704,380.91214C180.91704,379.02567,181.33624,378.7112,182.6463,379.60208C183.43231,380.12607,184.58516,380.23087,187.10043,380.02127C189.98254,379.75925,190.61136,379.81168,191.18777,380.65005C191.71179,381.3837,191.76419,381.85532,191.29259,382.69376C190.97818,383.27017,190.61136,385.8379,190.50656,388.40558C190.34935,392.85974,190.34935,393.0169,188.51529,394.851C187.46725,395.89905,186.73363,397.05188,186.89084,397.4187C187.04803,397.8379,186.78603,398.4143,186.36682,398.78113C185.9476,399.09552,185.73799,399.51477,185.8952,399.67194C186.26201,400.0912,184.84717,402.18726,181.70306,405.80298C179.18777,408.68506,178.87337,409.26147,178.40175,412.61517C177.66812,417.59332,177.87773,421.99512,178.97818,425.2964C179.76419,427.54968,181.44106,430.01257,181.44106,428.9121C181.44106,428.7025,182.01747,428.96454,182.7511,429.43616C184.16594,430.3794,185.9476,430.2746,190.87337,429.0169C192.70744,428.54535,193.80788,427.96893,193.91269,427.39246C194.1747,426.03003,195.53714,425.92523,201.35373,426.65887C207.06552,427.4449,208.63757,427.39246,214.71617,426.44928C216.96945,426.08246,218.80351,425.4536,219.48473,424.82477C220.58517,423.82916,220.63757,423.82916,221.63321,425.24402C222.99565,427.07806,223.88649,426.50165,223.51967,424.14355C223.25766,422.5191,223.36247,422.3095,224.35811,422.3095C224.98692,422.3095,225.61574,421.9427,225.82535,421.47107C226.08736,420.7375,226.76857,420.68506,230.85591,420.99945C237.24893,421.47107,242.2271,423.3051,243.22273,425.50604C243.58954,426.39685,245.00438,428.4405,246.36684,430.11737C247.67688,431.74182,249.45854,433.9427,250.29697,435.04315C252.02623,437.40118,252.91705,437.82043,257.5808,438.29205L261.0393,438.65887L262.71616,435.25275C264.44543,431.79425,264.44543,431.79425,263.3974,430.64142C262.87335,430.065,261.72052,429.17413,260.9345,428.75494C258.6812,427.6021,259.57205,427.3401,262.40173,428.3357C264.34064,428.96454,266.01746,429.06934,269.9476,428.85974C274.40173,428.54535,275.3974,428.6501,278.6463,429.80298C282.15723,431.00818,285.0917,431.58466,297.77295,433.57587C300.81226,434.0475,306.47162,435.04315,310.34937,435.72437C318.52402,437.13922,321.87775,437.2964,323.86902,436.24835C325.44104,435.40997,332.2533,428.17853,333.30133,426.18726C333.66815,425.50604,334.19214,424.92963,334.45416,424.92963C334.97818,424.92963,343.25763,418.6938,348.1834,414.55402C352.74237,410.7287,360.0262,407.375,363.74673,407.375C368.4629,407.375,374.5415,411.35754,383.86902,420.47546C390.31445,426.86847,391.8865,427.96893,410.4367,439.54968C420.60266,445.89032,426.94327,449.5584,427.7817,449.5584C429.45856,449.5584,435.11795,444.84222,436.27078,442.4842C436.7424,441.59332,437.476,438.97327,437.94763,436.5628C438.99567,431.42743,439.3101,431.95142,432.70746,427.07806C415.6769,414.50165,406.4542,409.15668,387.90396,401.03436C380.77728,397.9427,379.20526,397.05188,378.99564,396.0562C378.6812,394.6938,373.91266,391.70685,370.34937,390.60645C368.4629,390.03003,368.1485,389.71564,367.41486,387.46234C366.99564,386.0475,366.36682,384.84222,366.05243,384.7375C365.16156,384.42303,364.79477,386.25714,365.3712,388.24835C365.6856,389.24402,365.8952,390.13483,365.8952,390.13483C365.8952,390.1872,365.1092,390.39685,364.16595,390.55402C362.27948,390.92084,355.41486,395.79425,355.41486,396.78986C355.41486,397.4187,345.40613,400.92963,344.9345,400.45795C344.5677,400.0912,354.2096,391.07806,360.2358,386.15228C365.3712,381.9601,368.04367,380.44046,379.99127,375.30508C386.06992,372.68503,388.7948,371.0082,391.67688,367.9689C393.77298,365.76797,399.43234,358.01254,399.43234,357.2789C399.43234,357.0693,400.0612,355.9689,400.7948,354.86844C401.5284,353.76797,403.10046,350.9907,404.25333,348.68503L406.4018,344.4929L405.82538,340.30075C405.30136,336.58023,405.03934,335.9514,403.51968,334.6414C402.57645,333.85532,401.5808,333.22647,401.26642,333.22647C400.952,333.22647,398.80353,336.68503,396.55026,340.9296C391.2577,350.83353,386.0175,358.69376,382.7162,361.62827C378.1048,365.76797,361.59827,374.09988,357.93015,374.09988C356.9869,374.09988,355.15283,374.57144,353.8952,375.14792C352.63757,375.72433,351.17032,376.19595,350.6463,376.19595C350.0699,376.19595,348.44543,376.82474,346.97818,377.61075C343.72925,379.28763,342.2096,381.9601,343.57208,383.47977C344.04367,384.00385,344.4105,385.15668,344.4105,386.0999C344.4105,388.19598,342.62885,389.9776,334.34937,396.16107C331.31006,398.46674,327.95636,401.34882,326.9607,402.55402C324.70743,405.38373,319.78168,412.82477,319.78168,413.4536C319.78168,414.65887,317.1092,414.92084,313.33624,414.13483C311.2926,413.71564,309.0393,413.50604,308.4105,413.6632C307.78168,413.82043,305.63318,413.24402,303.4323,412.40558C301.33624,411.56714,298.50656,410.57153,297.1441,410.25714C294.6812,409.6283,294.0,408.99945,295.25763,408.58026C295.62445,408.42303,294.2096,407.5846,292.11353,406.589C287.18777,404.3357,286.82098,403.86407,288.86462,402.39685C293.0044,399.46234,299.9214,386.62396,298.97818,383.637C298.82098,383.32254,298.03494,383.0082,297.19653,383.0082C296.04367,383.0082,295.67688,382.79855,295.78168,382.1697C295.93887,381.22647,294.36682,380.1785,278.6463,371.06058C254.64632,357.22647,252.91705,356.07364,253.59828,354.39682C253.75548,353.97757,252.96945,353.1392,251.44981,352.24832C247.88649,350.04745,247.99129,349.47104,254.43669,338.09988C255.79915,335.7418,258.0524,331.44485,259.51965,328.56277C261.82532,323.9514,262.03494,323.16537,261.56332,322.01254C261.0917,321.01688,258.83844,319.60208,257.63318,319.60208C257.5808,319.60208,257.00436,320.28323,256.42795,321.12173 Z M214.9782,346.74612C214.9782,347.0082,214.66377,347.58463,214.29697,348.16104C213.45854,349.26144,212.35811,348.78983,212.35811,347.32254C212.35811,346.58896,212.72491,346.32693,213.66814,346.32693C214.40176,346.32693,214.9782,346.53653,214.9782,346.74612 Z M219.69435,352.35318C219.69435,353.19156,219.37993,353.66318,218.90831,353.66318C218.43669,353.66318,218.1223,353.19156,218.1223,352.35318C218.1223,351.51468,218.43669,351.04312,218.90831,351.04312C219.37993,351.04312,219.69435,351.51468,219.69435,352.35318 Z M213.40614,353.1392C213.40614,353.40115,213.19652,353.66318,212.88213,353.66318C212.6201,353.66318,212.35811,353.40115,212.35811,353.1392C212.35811,352.82474,212.6201,352.61514,212.88213,352.61514C213.19652,352.61514,213.40614,352.82474,213.40614,353.1392 Z M194.01749,385.20905C194.01749,385.57587,193.75548,386.25714,193.49347,386.67633C193.07426,387.3051,192.96945,387.14795,192.96945,385.99506C192.96945,385.20905,193.23146,384.58026,193.49347,384.58026C193.80788,384.58026,194.01749,384.89465,194.01749,385.20905 Z M261.3537,388.51038C269.2664,393.06934,269.73798,393.4886,267.58954,393.4886C266.6987,393.4886,264.81226,393.85535,263.3974,394.2746C260.14847,395.2702,260.04367,395.2702,260.04367,394.065C260.04367,391.9165,258.41922,388.7724,256.27075,386.7287C255.06552,385.57587,254.1747,384.58026,254.3319,384.58026C254.5415,384.58026,257.6856,386.36188,261.3537,388.51038 Z M207.11794,406.851C207.43233,408.37067,208.16597,410.0475,208.68999,410.5191C209.2664,411.04315,209.73802,411.61957,209.73802,411.82916C209.73802,412.61517,206.3319,414.55402,204.55025,414.76367C203.50221,414.86847,201.24893,415.54968,199.51967,416.3357L196.42796,417.75055L194.2271,416.59772C192.44543,415.65448,191.5546,415.4449,189.82533,415.75928C187.88647,416.07367,187.67686,416.0213,187.83406,415.18286C187.93887,414.55402,189.87773,413.24402,193.23146,411.56714C196.79478,409.7331,199.46727,407.95142,201.87775,405.69818C205.75548,401.9776,206.1223,402.08246,207.11794,406.851 Z M225.19652,420.7375C225.77295,421.68073,223.83409,421.9427,222.94325,421.05188C222.15723,420.2658,222.20963,420.21344,223.46727,420.21344C224.2533,420.21344,225.03932,420.47546,225.19652,420.7375 Z M222.83846,424.5628C222.83846,424.82477,222.62885,424.82477,222.31444,424.6676C222.05241,424.51038,221.79042,423.93396,221.79042,423.46234C221.79042,422.67633,221.89522,422.67633,222.31444,423.35754C222.57643,423.7768,222.83846,424.3532,222.83846,424.5628 Z M257.3188,430.79858C256.84717,431.89905,250.9258,431.2702,250.71617,430.065C250.55898,429.33136,251.0306,429.17413,253.33626,429.0169C256.21835,428.85974,257.7904,429.54095,257.3188,430.79858 Z"/> </g> </g> </svg>