<?xml version="1.0" encoding="UTF-8"?>
<!DOCTYPE svg  PUBLIC '-//W3C//DTD SVG 1.1//EN'  'http://www.w3.org/Graphics/SVG/1.1/DTD/svg11.dtd'>
<svg enable-background="new 0 0 2643 1614" version="1.1" viewBox="0 0 2643 1614" xml:space="preserve" xmlns="http://www.w3.org/2000/svg">
	<path d="m976.52 1082.5c-7.0779 25.332-10.062 51.115-14.248 76.656-3.1173 19.022-5.8079 38.144-7.7654 57.316-2.0219 19.802-4.5806 39.59-4.7101 59.555-0.0151 2.3252 0.2087 4.8474-0.5798 6.9385-3.5266 9.3534-2.6452 19.09-2.6222 28.679 0.0744 30.972 0.1155 61.953 0.9564 92.909 0.4323 15.912 1.3109 32.004 4.1967 47.606 3.4805 18.818 7.5334 37.735 18.302 54.356 7.6809 11.855 8.3817 25.808 9.8508 39.351 0.9262 8.5375-0.3149 17.12 1.5885 25.781 1.8414 8.379-5.4042 15.862-14.073 15.904-26.328 0.127-52.657 0.08-78.986 0.0834-52.666 0.0067-105.33 0.0122-158-4e-3 -17.942-0.0055-17.635-0.0452-18.164-17.657-0.8638-28.786 9.751-53.274 27.249-75.317 2.0585-2.5934 4.4425-4.9946 6.9712-7.1357 7.3814-6.2499 12.407-14.172 16.462-22.766 11.513-24.402 15.846-50.47 19.142-77.044 5.3467-43.11 2.6714-86.344 3.8885-129.51-4.1515-20.356-1.272-41.092-3.6238-61.683-2.6835-23.494-5.4951-46.925-10.291-70.025-5.2-25.047-11.792-49.803-17.583-74.731-5.6937-24.51-6.4867-49.416-5.1836-74.416 2.0161-38.678 9.5919-76.53 17.56-114.3 6.1808-29.294 12.232-58.633 19.383-87.695 2.4202-9.8361 0.8209-17.898-2.8253-26.821-9.5517-23.376-18.995-46.84-25.294-71.378-1.1317-4.4083-3.0983-3.834-6.5085-2.5203-22.644 8.7238-46.027 13.608-70.241 9.4082-12.758-2.2129-24.384-7.7896-35.226-15.522-11.713-8.3543-22.259-17.956-33.157-27.201-5.3233-4.5157-5.8411-4.801-10.242 0.439-8.7807 10.454-17.292 21.135-26.016 31.637-10.393 12.511-20.902 24.926-31.344 37.397-4.2693 5.0989-9.1079 9.8478-12.625 15.426-10.399 16.494-25.032 29.344-37.7 43.804-15.055 17.184-27.444 36.775-45.712 51.219-9.6799 7.6541-16.932 17.907-24.491 27.632-4.1033 5.2795-7.994 10.75-13.1 15.024-4.5909 3.8423-4.2103 6.9722-1.2886 11.862 17.545 29.365 30.521 60.72 38.082 94.084 8.1531 35.979 9.4508 72.222-2.8014 107.5-5.9602 17.162-15.179 33.183-25.766 48.158-1.9247 2.7225-4.2003 5.1418-5.0511 8.4938-0.3213 1.2657-0.6187 2.7338-1.4404 3.6479-20.173 22.442-34.322 48.537-46.567 75.863-7.1884 16.042-11.252 33.084-12.184 50.237-1.0168 18.709 4.5819 36.397 19.679 49.314 8.4665 7.2438 18.788 6.2369 28.655 4.3342 9.2675-1.7874 16.903-7.0142 24.464-12.848 15.492-11.951 22.127-29.581 31.423-45.557 0.8364-1.4375 1.4689-2.9941 2.3154-4.4249 3.5351-5.9746 3.5618-5.688 9.2958-1.1359 12.502 9.9258 25.287 19.495 37.936 29.236 6.9917 5.3838 6.8434 5.3057 1.4224 12.24-12.69 16.233-26.358 31.686-41.124 45.94-23.482 22.666-50.672 39.324-84.074 42.26-17.982 1.5802-35.133-3.3813-50.409-12.886-14.674-9.1304-26.849-20.984-37.185-35.205-8.581-11.806-14.745-24.442-19.671-37.883-7.9027-21.562-8.5993-43.612-3.6443-65.91 7.1717-32.274 19.15-63.053 29.505-94.333 8.058-24.342 16.416-48.578 22.972-73.396 5.1991-19.681 9.3004-39.58 10.664-59.871 0.5024-7.4767-1.3502-15.14-2.3795-22.684-1.4423-10.571-3.7272-20.984-7.2177-31.071-1.8054-5.2175-3.153-5.1422-7.5236-1.4932-8.5963 7.1769-17.172 14.422-26.216 21.009-13.339 9.7158-26.742 19.422-40.737 28.136-15.451 9.6212-31.295 18.542-47.779 26.537-15.604 7.5684-31.313 14.586-47.578 20.426-29.311 10.524-59.678 16.169-90.614 19.023-6.6691 0.6152-7.5125 6e-3 -8.862-6.3213-0.2775-1.3011-0.4639-2.6298-0.5818-3.9554-0.6195-6.9626-0.1908-7.8505 6.7573-9.6622 23.383-6.0969 45.272-16.038 65.953-28.077 22.71-13.221 43.448-29.473 62.516-47.69 0.345-0.3295 0.2401-1.1298 0.4543-2.3138-5.2375 0.5239-9.8755 2.7469-13.959 5.121-16.317 9.4876-34.505 13.996-51.974 20.394-20.378 7.4628-41.777 11.216-62.642 16.911-4.557 1.2437-7.7406 0.9874-9.1959-4.1033-0.3623-1.2673-1.08-2.4313-1.6138-3.6517-3.0194-6.9028-3.0678-6.9824 3.0422-10.905 10.935-7.0208 21.89-14.012 32.921-20.882 28.707-17.879 56.577-36.988 84.036-56.718 14.789-10.626 30.128-20.532 44.464-31.729 7.6384-5.9662 15.62-11.554 23.14-17.727 5.2032-4.2709 10.509-8.8366 16.341-12.531 3.8709-2.4521 4.7321-5.0813 1.3603-9.7281-11.168-15.39-20.064-32.06-27.222-49.805-4.9768-12.337-9.5747-24.681-13.241-37.472-3.8986-13.602-5.5162-27.354-5.6657-41.426-0.2304-21.691-0.457-43.307 6.8844-64.218 6.6378-18.906 14.94-36.751 26.567-53.321 7.526-10.726 16.18-20.443 24.122-30.755 5.8042-7.537 13.435-13.544 19.069-21.531 12.502-17.723 21.839-36.247 22.199-58.598 0.2567-15.953-1.2823-31.9 1.309-47.896 2.7907-17.226 11.109-30.938 22.648-43.501 9.7781-10.645 22.35-17.511 33.424-26.376 3.45-2.7617 6.2625-5.6935 8.806-9.2833 20.445-28.856 29.11-62.363 38.278-95.709 7.942-28.888 13.651-58.424 23.664-86.692 6.8661-19.385 14.876-38.267 27.376-55.193 6.6644-9.0241 13.555-18.061 20.758-26.436 12.465-14.492 27.697-26.413 45.064-35.089 6.2331-3.1139 12.591-5.9792 18.815-9.1104 16.62-8.3613 34.512-11.82 52.779-13.887 9.2236-1.0432 18.392-2.0053 27.738-2.3669 43.025-1.6648 83.134 9.334 121.67 26.912 8.5739 3.9108 16.796 9.866 25.298 13.444 13.507 5.685 24.064 15.173 34.356 24.119 10.939 9.5073 23.435 18.637 29.729 32.946 2.8849 6.5584 4.6851 6.567 10.031 2.13 1.0249-0.8505 1.9319-1.9687 3.1036-2.4981 19.582-8.8489 37.384-21.095 58.718-26.747 32.65-8.6507 65.681-9.9909 98.974-8.9702 26.548 0.8139 53.007 3.0504 79.429 6.2719 19.04 2.3214 38.127 4.6682 57.394 5.6447 13.601 0.6893 27.22 2.2338 40.835 1.6487 16.909-0.7266 33.759-2.9867 50.668-3.4886 11.325-0.3362 22.461-2.1113 33.646-3.2 13.178-1.2827 26.44-1.4222 39.623-3.6732 11.286-1.927 23.039-2.7347 34.471-3.1161 33.579-1.1205 67.159-3.0928 100.8-2.2185 20.96 0.5446 41.908 0.9177 62.869 1.7705 23.892 0.972 47.763 2.6687 71.461 5.0085 14.943 1.4754 30.066 3.0125 45.03 5.3139 26.966 4.1474 53.832 8.7462 80.426 14.773 25.85 5.8576 51.397 12.746 76.593 21.196 25.259 8.4709 50.356 17.234 74.459 28.54 13.484 6.3251 27.305 11.982 39.811 20.446 9.3337 6.3165 19.53 11.454 29.658 16.479 15.933 7.9067 29.457 19.162 43.402 29.886 2.8644 2.2031 6.3831 3.5686 9.1941 5.826 17.522 14.071 35.434 27.683 51.053 43.99 7.3677 7.6927 16.095 14.247 22.579 22.582 8.5725 11.019 19.554 20.066 26.402 32.452 0.8025 1.4518 1.5054 3.1028 2.6934 4.1754 15.5 13.992 24.728 32.353 35.198 49.893 6.2908 10.538 13.656 20.441 19.812 31.05 26.372 45.451 45.152 94.221 62.076 143.77 22.63 66.249 37.8 134.49 53.973 202.46 6.0225 25.314 9.2288 51.05 12.8 76.748 2.8965 20.848 8.5461 41.014 15.718 60.732 31.587 86.844 72.417 169.56 112.96 252.4 4.6836 9.5713 8.9795 19.332 13.52 28.974 2.9937 6.3569 5.2778 6.9882 10.471 3.0844 17.466-13.129 34.551-9.5984 45.211 10.038 3.1221 5.7513 6.8467 11.423 8.3518 18.004 2.72 11.894 11.266 18.618 21.008 24.694 4.9724 3.101 9.8386 7.0522 13.324 11.693 4.8013 6.3922 11.415 8.8352 18.285 11.299 1.5496 0.5559 3.2625 0.6437 4.8877 1.0031 15.987 3.5358 27.516 12.807 34.365 27.568 3.9167 8.4412 9.5056 14.809 17.402 19.939 9.3645 6.085 14.508 15.197 14.151 26.866-0.2625 8.5804-3.8936 14.045-12.03 16.141-5.4395 1.401-11.148 2.4991-16.725 2.4513-8.7605-0.075-16.905 2.8062-25.37 3.9198-10.842 1.4266-21.794 2.0599-32.713 2.8483-4.646 0.3352-9.3276 0.1559-13.991 0.2817-15.8 0.4261-28.193-7.2725-38.923-17.544-7.189-6.8821-13.846-14.338-21.276-21.033-4.1909-3.777-8.6936-7.7111-11.425-12.504-6.49-11.391-17.384-16.03-28.52-20.494-19.981-8.0072-35.262-21.709-47.9-38.754-1.5205-2.0508-1.5847-4.3524-1.6509-6.6464-0.3806-13.22 0.9116-26.072 9.8982-36.71 4.3179-5.1116 3.3374-9.832 0.863-15.474-35.149-80.152-70.118-160.38-105.11-240.6-7.9668-18.264-15.814-36.581-23.814-54.831-1.437-3.2778-2.3726-6.888-5.5115-9.9066-1.9438 2.213-0.4172 4.4426-0.3796 6.4511 0.3416 18.268 2.3193 36.587-1.8547 54.703-0.1484 0.6435-0.2295 1.3314-0.1819 1.987 1.9187 26.34-4.1155 52.533-1.8965 78.798 1.8442 21.834 5.2285 43.529 11.4 64.677 5.0444 17.286 11.701 34.014 18.532 50.6 5.8074 14.101 13.375 27.499 20.508 41.026 10.876 20.625 22.172 41.028 33.066 61.643 15.744 29.794 29.173 60.634 38.666 92.972 5.5068 18.76 9.6692 37.953 13.66 57.112 6.6233 31.803 17.852 61.816 34.03 89.9 6.5085 11.298 9.9478 23.346 10.511 36.032 0.7078 15.951 0.3479 31.957 0.1675 47.936-0.0989 8.7509-1.1575 9.5444-9.9231 9.8431-1.6646 0.0568-3.333 0.0131-4.9995 0.0131-83.998 2e-4 -168 5e-4 -252-9e-4 -2.3333-1e-4 -4.6672-0.0558-6.9995-0.0186-4.8164 0.077-7.3782-1.6946-7.1685-7.0798 0.8694-22.325-2.21-44.605-0.9766-66.935 0.9377-16.979 5.5605-25.258 20.785-30.529 8.1602-2.8248 12.071-8.1926 13.492-15.616 3.761-19.644 4.5967-39.285 1.823-59.357-2.0964-15.173-5.366-30.046-8.614-44.903-2.9707-13.59-8.4167-26.569-13.558-39.555-9.1038-22.993-22.312-43.824-34.649-65.057-4.9084-8.4479-10.843-16.504-16.582-24.565-9.9854-14.027-20.594-27.579-31.59-40.739-4.6699-5.588-11.285-10.49-15.472-16.129-6.8204-9.1858-14.968-16.83-22.768-24.856-17.65-18.161-35.08-36.663-54.097-53.317-9.8368-8.6143-17.803-18.686-27.117-27.604-17.975-17.21-35.783-34.621-51.159-54.267-5.6309-7.194-12.308-10.265-21.541-9.6185-9.6143 0.6734-19.379 0.6825-28.968-0.2104-8.5352-0.7948-12.633 2.9828-15.847 10.155-9.5499 21.312-17.881 43.049-24.326 65.498-15.76 54.899-22.096 110.94-20.48 167.97 0.3208 11.325 0.6124 22.687 0.0713 33.991-0.8632 18.023 1.6735 35.916 3.2949 53.65 2.4744 27.061 5.4476 54.185 9.899 81.101 5.321 32.176 15.094 63.056 24.82 94.01 3.1879 10.147 6.1552 20.37 8.9174 30.64 3.2625 12.131 0.5684 24.57 1.4524 36.84 0.2245 3.1171-1.8147 3.6703-4.5796 3.6199-12.319-0.2251-24.642-0.3679-36.963-0.3684-54.329-0.0023-108.66-0.1584-162.99 0.2146-17.316 0.119-34.655-1.4838-51.955 0.407-3.3972 0.3712-4.7797-1.2006-4.9888-4.5164-1.5132-23.995-1.5365-47.701 5.3925-71.243 3.1553-10.721 8.8729-19.479 15.683-27.256 19.298-22.036 28.5-47.287 29.649-76.39 0.8688-22.014 2.0566-44.006-2.4146-65.647-4.1023-19.856-10.202-39.243-16.752-58.468-12.024-35.29-22.004-71.2-27.528-108.07-2.5977-17.34-3.6525-35.025-5.3878-52.524-3.1396-31.66-0.4841-63.276-1.8137-94.876-0.3932-9.3434 0.6053-18.628 1.8116-27.902 1.0992-8.4505 0.882-8.3926-7.3301-10.425-13.546-3.353-27.499-4.0807-41.185-6.5585-17.258-3.1246-34.586-5.8688-51.893-8.7181-4.2466-0.6992-8.5697-0.9673-12.791-1.78-18.919-3.6422-38.116-5.5583-57.173-8.0196-12.365-1.597-25.132-2.303-37.598-3.4954-15.321-1.4656-30.546-1.9165-45.762-1.2939-18.238 0.7462-36.413 2.985-53.434 10.469-2.4346 1.0704-4.8446 2.2072-7.2095 3.4231-22.257 11.443-30.458 31.321-32.707 54.714-1.5217 15.828 2.0485 31.229 4.9309 46.529 5.7296 30.41 11.425 60.829 16.076 91.413 1.3861 9.1145 2.85 18.337 2.7202 27.764-0.1177 8.5626 1.7408 17.153 2.7328 25.691 1.161 9.9937 1.5425 19.842 1.2198 29.824-0.1714 5.3009-0.1837 10.554 1.7236 15.77 1.1019 3.0132 0.9458 6.5728 0.949 9.8867 0.0135 13.993-0.8901 28.033-0.0481 41.97 1.6846 27.886 2.0703 55.792 3.0914 83.678 0.4644 12.679 2.0591 25.689 3.6827 38.494 1.9897 15.691 4.6127 31.464 4.9006 47.436 0.1417 7.87 2.4855 15.625 3.5385 23.501 1.764 13.198 2.9948 26.349 3.3597 39.653 0.3024 11.019-2.2311 21.889-1.1865 32.916 0.3868 4.0839-1.7483 6.222-5.8596 6.3009-2.3325 0.0447-4.6663 0.047-6.9994 0.0471-75.672 0.0021-151.34 0.0018-227.02 9e-4 -1.9999 0-4.0079 0.1021-5.9984-0.0389-6.2287-0.4408-8.0939-2.1959-8.8349-8.5001-0.271-2.3057-0.1837-4.6606-0.1623-6.9922 0.1161-12.663 0.8397-25.353 0.2324-37.98-0.5778-12.014 4.1657-21.76 13.74-27.085 11.308-6.2889 14.311-16.34 16.321-26.98 2.6388-13.968 3.4723-28.263 5.036-42.401 4.4545-40.276 2.7435-80.621 1.49-120.77-1.9163-61.373-10.541-122.08-29.726-180.83-6.0388-18.492-14.314-35.817-26.749-50.951-1.0399-1.2661-2.1134-2.6064-4.8316-2.608z"/>
</svg>
